<?xml version="1.0" encoding="UTF-8" standalone="no"?>
<!-- Created with Inkscape (http://www.inkscape.org/) -->

<svg
   xmlns:dc="http://purl.org/dc/elements/1.1/"
   xmlns:cc="http://creativecommons.org/ns#"
   xmlns:rdf="http://www.w3.org/1999/02/22-rdf-syntax-ns#"
   xmlns:svg="http://www.w3.org/2000/svg"
   xmlns="http://www.w3.org/2000/svg"
   xmlns:sodipodi="http://sodipodi.sourceforge.net/DTD/sodipodi-0.dtd"
   xmlns:inkscape="http://www.inkscape.org/namespaces/inkscape"
   width="6.1929998mm"
   height="8.8780003mm"
   viewBox="0 0 6.1929996 8.878"
   version="1.1"
   id="svg8"
   inkscape:version="0.92.4 (5da689c313, 2019-01-14)"
   sodipodi:docname="drawing.svg">
  <defs
     id="defs2" />
  <sodipodi:namedview
     id="base"
     pagecolor="#ffffff"
     bordercolor="#666666"
     borderopacity="1.0"
     inkscape:pageopacity="0.0"
     inkscape:pageshadow="2"
     inkscape:zoom="31.80122"
     inkscape:cx="16.450394"
     inkscape:cy="15.117285"
     inkscape:document-units="mm"
     inkscape:current-layer="layer1"
     showgrid="false"
     inkscape:window-width="3840"
     inkscape:window-height="2109"
     inkscape:window-x="-14"
     inkscape:window-y="-14"
     inkscape:window-maximized="1">
    <inkscape:grid
       type="xygrid"
       id="grid4548" />
  </sodipodi:namedview>
  <metadata
     id="metadata5">
    <rdf:RDF>
      <cc:Work
         rdf:about="">
        <dc:format>image/svg+xml</dc:format>
        <dc:type
           rdf:resource="http://purl.org/dc/dcmitype/StillImage" />
        <dc:title></dc:title>
      </cc:Work>
    </rdf:RDF>
  </metadata>
  <g
     inkscape:label="Layer 1"
     inkscape:groupmode="layer"
     id="layer1"
     transform="translate(0,-288.122)">
    <path
       id="path5248"
       d="M 4.9897884,290.58474 C 4.48708,289.76454 3.9049967,288.97079 3.296455,288.20349 3.21708,288.09766 3.05833,288.0712 2.9260384,288.17699 c 0,0 0,0 0,0 -0.026458,0 -0.026458,0.0265 -0.026458,0.0265 -0.6085416,0.74084 -1.190625,1.53459 -1.6933333,2.38125 -0.76729205,1.34938 -1.19062535,2.46063 -1.19062535,3.28084 -0.026458,1.71979 1.37583325,3.12208 3.06916665,3.12208 1.7197916,0.0265 3.1220838,-1.37583 3.1220838,-3.06917 0,-0.0265 0,-0.0265 0,-0.0529 0.02646,-0.82021 -0.396875,-1.93146 -1.2170838,-3.28084 z m -0.635,2.32834 v 0 l -1.508125,2.98979 c -0.026458,0.0265 -0.079375,0.0529 -0.1058334,0.0265 -0.026458,-0.0265 -0.052917,-0.0529 -0.052917,-0.0794 l 0.2116666,-2.38125 H 2.0529134 c -0.1058334,0.0265 -0.1852084,-0.0529 -0.1852084,-0.15875 0,-0.0265 0,-0.0529 0,-0.0529 l 0.6879167,-2.16962 c 0.026458,-0.0794 0.1058333,-0.13229 0.1852083,-0.13229 h 0.8466667 c 0.1058333,0 0.1852083,0.0794 0.1852083,0.18521 0,0.0265 0,0.0529 0,0.0529 l -0.47625,1.4552 h 0.8466667 c 0.1058333,0 0.1852083,0.0794 0.1852083,0.18521 0.026458,0.0265 0.026458,0.0529 0.026458,0.0794 z"
       class="st0"
       inkscape:connector-curvature="0"
       style="fill:#000000;stroke-width:0.26458332;fill-opacity:1" />
  </g>
  <style
     id="style4518"
     type="text/css">
	.st0{fill:#ffffff;}
</style>
  <style
     id="style4550"
     type="text/css">
	.st0{fill:#ffffff;}
</style>
  <style
     id="style5176"
     type="text/css">
	.st0{fill:#ffffff;}
</style>
  <style
     id="style5212"
     type="text/css">
	.st0{fill:#023F5F;}
</style>
  <style
     id="style5246"
     type="text/css">
	.st0{fill:#023F5F;}
</style>
</svg>
