<svg xmlns="http://www.w3.org/2000/svg" width="28.505" height="28.415" viewBox="0 0 28.505 28.415">
    <defs>
        <style>
            .prefix__cls-2{fill:#f5ab1f}
        </style>
    </defs>
    <g id="prefix__ID" transform="translate(-1587.063 -29.073)">
        <path id="prefix__Tracé_230" d="M0 0a14.313 14.313 0 00-13.956-11.315A14.28 14.28 0 00-28.22 2.949a14.236 14.236 0 00.159 2.057l.027.187c.015.1.029.209.048.311.028.155.059.286.089.417l.024.1c.071.308.148.635.241.944l.062.2A14.213 14.213 0 00-13.98 17.1 14.281 14.281 0 00.285 2.839 14.344 14.344 0 000 0" data-name="Tracé 230" transform="translate(1615.283 40.388)" style="fill:#fff"/>
        <path id="prefix__Tracé_231" d="M0 0a12.7 12.7 0 01-10.576-5.675C-10.524-9.184-3.525-11.1 0-11.1c3.508 0 10.525 1.922 10.576 5.43A12.7 12.7 0 010 0" class="prefix__cls-2" data-name="Tracé 231" transform="translate(1601.327 56.205)"/>
        <path id="prefix__Tracé_232" d="M0 0a5.289 5.289 0 110 10.577A5.282 5.282 0 01-3.742 9.03a5.282 5.282 0 01-1.547-3.741 5.282 5.282 0 011.547-3.742A5.282 5.282 0 010 0" class="prefix__cls-2" data-name="Tracé 232" transform="translate(1601.327 32.998)"/>
    </g>
</svg>
