<?xml version="1.0" encoding="iso-8859-1"?>
<!-- Generator: Adobe Illustrator 19.1.0, SVG Export Plug-In . SVG Version: 6.00 Build 0)  -->
<svg xmlns="http://www.w3.org/2000/svg" xmlns:xlink="http://www.w3.org/1999/xlink" version="1.1" id="Capa_1" x="0px" y="0px" viewBox="0 0 481 481" style="enable-background:new 0 0 481 481;" xml:space="preserve" width="512px" height="512px">
<g>
	<g>
		<path d="M372.3,143.75c62,0,108.7-24.1,108.7-56.1s-46.7-56.1-108.7-56.1s-108.7,24.1-108.7,56.1    C263.6,119.65,310.3,143.75,372.3,143.75z M372.3,55.65c51.7,0,84.7,19,84.7,32.1s-33,32.1-84.7,32.1s-84.7-19-84.7-32.1    S320.6,55.65,372.3,55.65z" fill="#434343"/>
		<path d="M471.9,144.85c-6.2-2.3-13.1,0.9-15.4,7.1c-5.1,13.9-38.7,28.9-84.1,28.9c-44.2,0-77.3-14.2-83.7-27.9    c-2.8-6-10-8.6-16-5.8s-8.6,10-5.8,16c11.7,25,54.1,41.7,105.5,41.7c24.5,0,48.3-4,67.2-11.4c20.8-8.1,34.5-19.6,39.5-33.3    C481.3,154.05,478.1,147.15,471.9,144.85z" fill="#434343"/>
		<path d="M471.9,206.05c-6.2-2.3-13.1,0.9-15.4,7.1c-5.1,13.9-38.7,28.9-84.1,28.9c-44.2,0-77.3-14.2-83.7-27.9    c-2.8-6-10-8.6-16-5.8s-8.6,10-5.8,16c11.7,25,54.1,41.7,105.5,41.7c24.5,0,48.3-4,67.2-11.4c20.8-8.1,34.5-19.6,39.5-33.3    C481.3,215.25,478.1,208.35,471.9,206.05z" fill="#434343"/>
		<path d="M471.9,267.15c-6.2-2.3-13.1,0.9-15.4,7.1c-5.1,13.9-38.7,28.9-84.1,28.9c-44.2,0-77.3-14.2-83.7-27.9    c-2.8-6-10-8.6-16-5.8c-6,2.8-8.6,10-5.8,16c11.7,25,54.1,41.7,105.5,41.7c24.5,0,48.3-4,67.2-11.4c20.8-8.1,34.5-19.6,39.5-33.3    C481.3,276.35,478.1,269.45,471.9,267.15z" fill="#434343"/>
		<path d="M471.9,328.35c-6.2-2.3-13.1,0.9-15.4,7.1c-5.1,13.9-38.7,28.9-84.1,28.9c-44.2,0-77.3-14.2-83.7-27.9    c-2.8-6-10-8.6-16-5.8c-6,2.8-8.6,10-5.8,16c11.7,25,54.1,41.7,105.5,41.7c24.5,0,48.3-4,67.2-11.4c20.8-8.1,34.5-19.6,39.5-33.3    C481.3,337.45,478.1,330.55,471.9,328.35z" fill="#434343"/>
		<path d="M471.9,389.45c-6.2-2.3-13.1,0.9-15.4,7.1c-5.1,13.9-38.7,28.9-84.1,28.9c-44.2,0-77.3-14.2-83.7-27.9    c-2.8-6-10-8.6-16-5.8c-6,2.8-8.6,10-5.8,16c11.7,25,54.1,41.7,105.5,41.7c24.5,0,48.3-4,67.2-11.4c20.8-8.1,34.5-19.6,39.5-33.3    C481.3,398.65,478.1,391.75,471.9,389.45z" fill="#434343"/>
		<path d="M208.2,267.15c-6.2-2.3-13.1,0.9-15.4,7.1c-5.1,13.9-38.7,28.9-84.1,28.9c-44.2,0-77.3-14.2-83.7-27.9    c-2.8-6-10-8.6-16-5.8c-6,2.8-8.6,10-5.8,16c11.7,25,54.1,41.7,105.5,41.7c24.5,0,48.3-4,67.2-11.4c20.8-8.1,34.5-19.6,39.5-33.3    C217.6,276.35,214.4,269.45,208.2,267.15z" fill="#434343"/>
		<path d="M208.2,328.35c-6.2-2.3-13.1,0.9-15.4,7.1c-5.1,13.9-38.7,28.9-84.1,28.9c-44.2,0-77.3-14.2-83.7-27.9    c-2.8-6-10-8.6-16-5.8c-6,2.8-8.6,10-5.8,16c11.7,25,54.1,41.7,105.5,41.7c24.5,0,48.3-4,67.2-11.4c20.8-8.1,34.5-19.6,39.5-33.3    C217.6,337.45,214.4,330.55,208.2,328.35z" fill="#434343"/>
		<path d="M208.2,389.45c-6.2-2.3-13.1,0.9-15.4,7.1c-5.1,13.9-38.7,28.9-84.1,28.9c-44.2,0-77.3-14.2-83.7-27.9    c-2.8-6-10-8.6-16-5.8c-6,2.8-8.6,10-5.8,16c11.7,25,54.1,41.7,105.5,41.7c24.5,0,48.3-4,67.2-11.4c20.8-8.1,34.5-19.6,39.5-33.3    C217.6,398.65,214.4,391.75,208.2,389.45z" fill="#434343"/>
		<path d="M108.7,153.85c-62,0-108.7,24.1-108.7,56.1s46.7,56.1,108.7,56.1s108.7-24.1,108.7-56.1S170.7,153.85,108.7,153.85z     M108.7,242.05c-51.7,0-84.7-19-84.7-32.1s33-32.1,84.7-32.1s84.7,19,84.7,32.1S160.4,242.05,108.7,242.05z" fill="#434343"/>
	</g>
</g>
<g>
</g>
<g>
</g>
<g>
</g>
<g>
</g>
<g>
</g>
<g>
</g>
<g>
</g>
<g>
</g>
<g>
</g>
<g>
</g>
<g>
</g>
<g>
</g>
<g>
</g>
<g>
</g>
<g>
</g>
</svg>
