<svg xmlns="http://www.w3.org/2000/svg" width="32.936" height="27.029" viewBox="0 0 32.936 27.029">
  <path id="Suedafrika" d="M586.991,1024.8l3.443,6.928.045,1.584c-.174.381-.459.392-.779.33-.129.182-.25.417.033.594a15.208,15.208,0,0,0,1.279,2.327,13.483,13.483,0,0,0,1.634,1.272l1.367.109c.281-.2.026-.467,1.045-.566l2-.013c.632-.248-.079-.874,1.983-.72.339.043.485.415,1.017.127a9.07,9.07,0,0,1,2.8.351c.276-.221.174-.6,1.726-.3l.159-.6,1.82.029,10.788-10.026c1.711-.71,2.089-2.782,2.569-4.751l-1.355-.091c-.014-.164-1.3.756-1.464.774-.7.078-1.1-.147-1-1.366a2.866,2.866,0,0,1,1.3-1.8c.343-.224.685.621,1.027.4,0,0-.121-3.864-.265-7.1-.727-.442-1.247-1.2-2.541-.766a4.574,4.574,0,0,0-2.038-.614l-7.463,5.919-.274,1.237a6.408,6.408,0,0,1-2.544.477,3.792,3.792,0,0,0-2.087-.823l-1.245,1.09c-.116.6-.465.658-.733.906a1.457,1.457,0,0,0-.737.915,4.721,4.721,0,0,1-2.952-.186c.158-.734.629-1.21.236-2.395l-1.735-1.941-.226,8.336a5.331,5.331,0,0,0-1.575,1.076,9.057,9.057,0,0,0-2.816.023C589.251,1024.629,588.41,1023.107,586.991,1024.8Z" transform="translate(-586.991 -1010.914)" fill="#fff"/>
</svg>
