<svg xmlns="http://www.w3.org/2000/svg" width="29.945" height="28.985" viewBox="0 0 29.945 28.985">
  <path id="Algerien" d="M197.857,22.06l1.523-.759.314.112.522-.453.876.08.047-.4c1.812.089,2.189-.4,2.509-.882l1.517-.625.56.018-.293-.388.077-.307-.012-.508c.593-.078,1.325.018,1.33-.6l2.455.034.341-.706c-.471-.173-.555-.853-.492-1.576.047-.537,0-1.758,0-1.758a1.44,1.44,0,0,1-.412-.662c.131-.058.747.043,1.122-.458.193-.258.439-.779.761-.678.375.119,1.094.194,1.138-.044a1.915,1.915,0,0,1,1.75-.812c1.843.006,4.224-.7,5-.467s1.791-.3,2.241-.274.59.523,1.208.1c.231-.157,1.065.5,1.86.265a.88.88,0,0,0-.5.7c-.041.751-.111,3.087-.111,3.087-.079-.126-.644-.032-.733.35-.121.518-.7.384-.75.646-.093.527.367,1.011.908,1.483.139.121-.051.792.086.915a4.092,4.092,0,0,0,1.163.629,21.421,21.421,0,0,0,.478,2.9c-.787.053-.366.783.163,1.562l.033,4.466s-.711.144-.662.327a1.851,1.851,0,0,0,.655,1.178,1.337,1.337,0,0,1,.311,1.126.533.533,0,0,0,.45.549c.78-.019,1.439-.4,2.177,1.638L218.133,38a15.262,15.262,0,0,1-3.748.92c-.521-.229.083-.8-.092-1.186a.846.846,0,0,0-.979-.609c-.316.034-.481-.372-.606-.351-.505.084-.634-.491-.746-.593-.443-.406-.883-.523-.783-.892l-13.65-10.405.328-2.824Z" transform="translate(-197.529 -9.937)" fill="#fff"/>
</svg>
