<svg id="Angola" xmlns="http://www.w3.org/2000/svg" width="28.602" height="31.253" viewBox="0 0 28.602 31.253">
  <path id="path73" d="M508.335,760.292c.491-.13,1.022-.781,1.462-.258.437-.541,1.652-1.611,3.614.393l9.863-.135,1.056.921,6.217.8,3.932-.885-2.658-2.372.2-8.4,4.743.141-.515-.55.559-4.443c-.064.016-.137-.017-.2.006a10.932,10.932,0,0,1-3.585.345l-.426.836-.778-.655.867-1.155-1.17-2.371-.179-5.322-2.026.144v-.961l-.9-.132-.236.427-1.655-.085-.629,2.409a3.736,3.736,0,0,0-2.81.272c-1.087-.349-2.071.465-3.61-4.993l-.582-.348-6.231-.1-2.835.973c.71,2.042,2.21,3.2,2.159,6.222l-.487.468c.4,1.364.761,2.791,1.657,3.442.088.382-.105.66-.13.947-.092,1.05-.644,4.025-.886,3.494,0,0-1,.218-1.089,1.023-.044.392-.527.447-.707.93a39.264,39.264,0,0,0-1.414,5.44c-.044.226-.339.127-.375.342a14.83,14.83,0,0,0-.027,1.719c-.012.2-.262-.133-.31.111-.059.3.183,1.153.117,1.359Z" transform="translate(-508.209 -730.764)" fill="#fff"/>
  <path id="path75" d="M514.322,712.836l1.1-.665c.461-1.082.837-.768,1.2-.281a2.289,2.289,0,0,0-1,1.58c.11,1.04-.372.953-.715,1.131-.152-.282-.369-.552-.293-.88a1.083,1.083,0,0,0-.3-.886Z" transform="translate(-513.486 -711.442)" fill="#fff"/>
</svg>
