<svg xmlns="http://www.w3.org/2000/svg" width="31.108" height="22.387" viewBox="0 0 31.108 22.387">
  <path id="Burkina_Faso" data-name="Burkina Faso" d="M237.942,404.193c-.769-.1-1.04-1.138-1.67-1.735-1.241-1.175-3.584-.3-5.452.851a5.118,5.118,0,0,1-3-3.106c.455-1.228.145-2.842.763-4.147a7.082,7.082,0,0,1,3.193-3.17l2.055-4.308c1.763-.583,3.365-.8,4.745-1.291a6.923,6.923,0,0,0,3.251-2.211c2.631-1.625,5.9-3.708,7.913-3.192a2.876,2.876,0,0,0,.377,1.893c.684.465.538,1.235.4,2l4.065,5.466,1.548.515c.226-.258,1.331-1.623,1.877,1.386l.922.2-1.779,3-2.52-.133L252.2,398.1l-3.652-.434a6.581,6.581,0,0,0-3.185.617l-8.1-.232.682,6.137Z" transform="translate(-227.816 -381.806)" fill="#fff"/>
</svg>
