<svg xmlns="http://www.w3.org/2000/svg" width="38.061" height="34.023" viewBox="0 0 38.061 34.023">
  <g id="Groupe_4039" data-name="Groupe 4039" transform="translate(-16.888 -390.162)">
    <path id="path12366" d="M24.089,396.132c-.039.4.093.842-.126,1.213a.4.4,0,0,0,.62.449c.358-.2.724.127,1.094.07a1.029,1.029,0,0,0,.955-.668,8.543,8.543,0,0,0,.954-.792,3.677,3.677,0,0,0,.955-.469c.289-.182.612-.309.911-.471a1.306,1.306,0,0,0,.567-1.113c-.138-.38-.851-.4-.633-.92-.034-.506-.613-.293-.893-.517-.3-.3-.719-.159-1.056-.019a2.625,2.625,0,0,1-.913.353,1.278,1.278,0,0,0-.8.444c-.34.209-.651.495-1.069.44a1.667,1.667,0,0,0-1.054.8c-.282.4.149.674.446.855.1.1.056.228.043.345Z" transform="translate(1.088 0.419)" fill="#fff"/>
    <path id="path12368" d="M28.118,400.412a1.537,1.537,0,0,1,.62.33c.083.244.4.146.5-.032.316-.191.74.032,1.034-.218.2-.139.482-.041.657-.227.147-.181-.03-.43.1-.619.061-.254-.248-.254-.4-.322-.137-.067-.3-.213-.222-.38.132-.156.252-.414.077-.585a.224.224,0,0,0-.374.142c-.173.171-.391,0-.443-.172-.222-.068-.362.219-.582.222-.126.135.122.345-.1.451-.191.156-.378-.03-.552-.1-.2-.042-.411.009-.464.229-.1.143-.322.136-.357.346-.036.154-.312.319-.117.465.22-.031.183.383.432.394a.3.3,0,0,1,.194.076Z" transform="translate(0.948 0.22)" fill="#fff"/>
    <path id="path12370" d="M32.424,401.005c-.081,0-.045.093-.054.147a.343.343,0,0,0,.1.253.394.394,0,0,1,.244.135.553.553,0,0,0,.182.154c.02.056.037.114.052.173.031.03,0,.121.029.172a.18.18,0,0,0,.161.066c.078.007.164-.007.224.055a.241.241,0,0,0,.262-.068.386.386,0,0,0,.219-.251.112.112,0,0,0-.052-.153.179.179,0,0,0-.185-.013c-.076.029-.115.117-.2.119a.732.732,0,0,1-.136-.4c-.013-.106-.156-.133-.165-.242a.669.669,0,0,0-.077-.235c-.064-.019-.087-.085-.135-.117-.1-.037-.219-.1-.326-.04-.054.03-.066.109-.1.161l-.04.082Z" transform="translate(0.771 0.132)" fill="#fff"/>
    <path id="path12372" d="M38.34,404.025a.759.759,0,0,0,.43,1.245c.442.088.2.588.3.876a1.626,1.626,0,0,1,.206,1.048c0,.363.444.227.424-.07a2.385,2.385,0,0,1,.491-.907c.231-.332.443-.745.848-.886a1.17,1.17,0,0,1,1.062.245,3.69,3.69,0,0,1,.9.606c.369.15.784-.012,1.155.136.338.129.8-.275.522-.595-.291-.217-.574-.444-.868-.656a2.127,2.127,0,0,0-1.071-.165c-.319.125-.53-.117-.735-.312a1.052,1.052,0,0,0-1.021-.146.764.764,0,0,1-.855-.3c-.247-.246-.485-.7-.887-.432-.279.175-.641.108-.9.31Z" transform="translate(0.563 0.028)" fill="#fff"/>
    <path id="path12364-4" d="M55.419,432.128c-.111.245-.41.294-.579.478-.113.226.286.266.252.491-.015.257-.455.25-.381.546a.624.624,0,0,1-.162.575.461.461,0,0,0,.039.6,2.034,2.034,0,0,1,.52.425.67.67,0,0,0,.567.306c.28-.016.286-.389.525-.459a.533.533,0,0,0,.479-.32c.136-.158.318-.328.285-.557-.017-.236-.119-.486-.009-.713a1.326,1.326,0,0,0-.062-.648,2.669,2.669,0,0,0,.084-.805c-.053-.275-.366-.243-.547-.13a.214.214,0,0,1-.238-.3c-.105-.03-.291.141-.3-.077-.173-.145-.145.233-.293.209-.3,0-.013.266-.183.376Z" transform="translate(-11.663 -16.106)" fill="#fff"/>
    <path id="path12374-14" d="M63.373,402.745c0,.229-.1.512.1.686.147.173-.12.329-.15.5.047.176.136.366-.02.535-.117.11-.067.306.114.227.162-.095.394-.174.493.047a.515.515,0,0,1-.11.649c-.122.281.192.551.052.832-.1.208.081.508.3.3.165-.017.451-.115.287-.323-.16-.262.154-.449.245-.663.092-.2.282-.388.228-.622-.049-.253-.285-.459-.227-.732a1.811,1.811,0,0,1,.2-.778c.186-.221.036-.437-.064-.646-.1-.254.256-.3.237-.538.015-.226-.2-.328-.322-.475-.167-.127-.277.119-.451.131a2.4,2.4,0,0,0-.465.245c-.287.033-.573.327-.444.626Z" transform="translate(-11.978 -11.546)" fill="#fff"/>
    <path id="path12376-6" d="M62.594,418.279c.3.083.414.518.764.462.377-.112.763.128,1.141.015a3.821,3.821,0,0,1,.931-.609,2.476,2.476,0,0,0,1.282-1.038c.293-.27.034-.638-.012-.921.195-.254.3-.608-.067-.765-.277-.249-.128-.681-.366-.946a2.953,2.953,0,0,1-.881-.392c-.319-.218-.551.077-.737.309a.931.931,0,0,1-1.258-.267c-.074-.187-.451-.43-.468-.092.1.3-.164.589-.1.855a1.75,1.75,0,0,1,.107.91c.033.4-.4.514-.7.575-.345.185-.148.619-.346.895a.533.533,0,0,0,.352.792,1.017,1.017,0,0,1,.364.218Z" transform="translate(-11.926 -11.981)" fill="#fff"/>
    <path id="path12378-0" d="M45.8,437.244c-.264.34.152.648.355.892a1.975,1.975,0,0,0,1.235.883c.434.165.962-.016,1.343.306.268.068.544-.17.765-.254.314-.322.282-.876.64-1.146.483-.069.34-.579.228-.9-.17-.545-.625-.977-.689-1.556.046-.4-.444-.584-.644-.84a2.413,2.413,0,0,1-.85-1.056,3.476,3.476,0,0,0-1.128-1.171c-.384-.259-.048-.6.013-.893-.023-.337-.439-.335-.616-.317-.23-.332-.808-.026-.5.285-.152.1-.433.2-.191.367a1.153,1.153,0,0,0,.286.815c-.1.367-.492.628-.489,1.014-.359.419-.113,1-.258,1.466-.243.3-.541.694-.162,1.018a.741.741,0,0,0,.574.718.33.33,0,0,1,.091.368Z" transform="translate(-11.323 -16.089)" fill="#fff"/>
    <path id="path12380-7" d="M33,436.765a1.39,1.39,0,0,0-.821.916c-.11.225-.44.442-.282.719.1.26.01.61.264.8a8.779,8.779,0,0,0,.619.672,1.286,1.286,0,0,0,.553.477,1.5,1.5,0,0,0,.7.1c.286.046.515-.171.765-.271a3.248,3.248,0,0,0,.69-.664c.163-.306.042-.666.151-.985.091-.271-.132-.54-.019-.809.176-.249-.015-.533-.039-.8a.793.793,0,0,0-.425-.644c-.224-.1-.435-.323-.7-.269-.329.118-.575.4-.92.484a1.179,1.179,0,0,0-.541.276Z" transform="translate(-10.854 -16.266)" fill="#fff"/>
    <path id="path12382-1" d="M28.718,438.6c-.121-.024-.2.091-.263.175-.09.116-.233.019-.323-.039a.246.246,0,0,0-.256.317c.049.09.01.2-.1.193-.117.041-.116.179-.071.274s-.053.159-.105.224c-.035.1.079.121.143.122.091.079.048.233.155.3s.272.04.285.193c.04.134.186.064.207-.042.035-.122.156-.147.265-.149a.209.209,0,0,0,.173-.2,2.232,2.232,0,0,1,.041-.33,1.713,1.713,0,0,0-.033-.538c-.024-.118.029-.237.01-.352-.028-.06-.093-.091-.124-.147Z" transform="translate(-10.701 -16.359)" fill="#fff"/>
  </g>
</svg>
