<svg xmlns="http://www.w3.org/2000/svg" width="32.754" height="20.789" viewBox="0 0 32.754 20.789">
  <path id="Zentralafrikanische_Republik" data-name="Zentralafrikanische Republik" d="M558.265,459.248,555.981,463l.306,2.724a18.292,18.292,0,0,0,3.631,5.119c.941-1.048,1.356-1.856,3.22-2.339l1.622.705,1.82-.512a3.527,3.527,0,0,0,.45-2.136,6.588,6.588,0,0,1,1.978-2.042c.5.389,1.394.089,1.461,1.253.6.671,1.158,1.07,1.593.448.5.745,2.644.507,4.117.67a6.5,6.5,0,0,1,.543-1.189,1.778,1.778,0,0,1,1.689.279l3.11-1.088.2.459,1.244-.2-.022-.463,2.748-.228.612.786.283-.425.469.343.4-.455,1.281-.05c-.262-.726-.15-1.587-2.091-2.044l-1-2.039c-1-.958-2.774-1.4-2.9-2.939l-.767-.741c-.65.03-1.216.312-1.94-.863-1.17-.178-1.965-.361-1.2-2.732a14.841,14.841,0,0,0-2.317-3.247c-1.678.321-2.352.235-2.411,1.97-.533.424-1.316.641-1.559,1.307-.211.492-.386.871-1.132.935a4.179,4.179,0,0,0-.738.691l-3.18.332a1.647,1.647,0,0,1-.582,1.8c-.182.178-.314.4-.484.589l-2.29.213c-2.647,1.168-3.976.92-5.881,1.358Z" transform="translate(-555.981 -450.05)" fill="#fff"/>
</svg>
