<svg xmlns="http://www.w3.org/2000/svg" width="29.478" height="26.046" viewBox="0 0 29.478 26.046">
  <g id="Groupe_4037" data-name="Groupe 4037" transform="translate(-1264.027 -957.952)">
    <path id="path12426-0" d="M1266.459,958.206c.624-.049,1.3-.484,1.89-.09a1.967,1.967,0,0,1,.2,2.427c-.228.873.079,1.824-.323,2.663a2.4,2.4,0,0,0,.084,1.981,14.675,14.675,0,0,0,.922,1.8c.252.606-.1,1.332.248,1.889a8.16,8.16,0,0,0,.8,1.68,1.45,1.45,0,0,1-.952,1.648c-.78-.061-1.03-.952-1.515-1.424-.386-.785-1.3-.649-1.99-.788-.859-.245-.8-1.227-1.312-1.773a1.324,1.324,0,0,1-.173-1.889,2.507,2.507,0,0,0,.589-1.586,7.944,7.944,0,0,1,.281-1.717c-.013-.718.222-1.421.264-2.11a2.85,2.85,0,0,1,.288-2c.128-.306.289-.736.692-.717Z" transform="translate(0 0)" fill="#fff"/>
    <path id="path12428-9" d="M1271.332,975.082c.195.3.592.255.892.357.285.267.764.193,1,.52.223.2.6.223.731.522.262.444.816.507,1.2.8.246.169.4.438.641.61a.452.452,0,0,1-.044.775,3.124,3.124,0,0,1-.778-.142c-.316-.064-.6-.224-.913-.3-.246.041-.505.117-.714-.086-.233-.19-.441.12-.69-.022-.281.006-.433-.307-.733-.208-.237.055-.593.106-.674-.2-.07-.282.164-.655-.192-.824a.66.66,0,0,1-.371-.513,1.113,1.113,0,0,1,.026-1.038c.159-.122.378-.4.594-.271l.021.023Z" transform="translate(1.896 4.946)" fill="#fff"/>
    <path id="path12430-4" d="M1281.26,974.257c.521-.126.81.575,1.331.446.485.017.935.392,1.425.184a2.036,2.036,0,0,0,1.468-.395,1.792,1.792,0,0,0,.749-1.105c.061-.334-.133-.829.272-1,.377-.15.945-.429,1.245,0,.169.481.1,1.032.313,1.509a13.476,13.476,0,0,1,.3,1.671,2.311,2.311,0,0,1,.064,1.346,15.586,15.586,0,0,0-.079,1.628c0,.428.077.964-.286,1.273-.453.249-.947-.32-.8-.765-.153-.629-.97-.609-1.273-1.121-.215-.4-.566-.685-.784-1.074a1.375,1.375,0,0,0-1.2-.631c-.511-.1-.783-.631-1.288-.753a2.843,2.843,0,0,1-1.362-.975.864.864,0,0,1-.089-.245Z" transform="translate(4.992 4.117)" fill="#fff"/>
  </g>
</svg>
