<svg xmlns="http://www.w3.org/2000/svg" width="26.37" height="29.734" viewBox="0 0 26.37 29.734">
  <path id="Republik_Kongo" data-name="Republik Kongo" d="M500.967,604.077l-3.393-4.38,2.271-1.443-.267-2.458,2.779-1.683c.474-.373.83-1.278,1.683.054,1.476-.175,2.336.2,2.805.935l1.175-.8.481-4.889c-.022-1.684-1.907-2.785.347-5.183.379-1.577-1.031-2.656-2.591-2.592-.382.488-.525,1.274-1.466,1.064l.049-2.346.561-.855,4.542.054,2.194.78c.819-.418,1.915.824,2.677.952l-.115-3.763c1.721-2.193,2.989-2.847,4.408-3.179l2.164.988,2.672-.748c-.656,1.755-1.371,3.2-2.036,4.918-1.139,2.952-.758,6.55-1.277,9.856-2.467,1.082-3.361,2.981-4.649,4.675l-1.064,4.9c-2.322,2.488-4.372,4.482-5.7,4.374-.009-1.4-1.527-2.639-2.766-.339-.864.572-1.486.275-2.15-.355-.96-1.269-1.276-.194-1.71.454l-1.63,1.014Z" transform="translate(-497.574 -574.343)" fill="#fff"/>
</svg>
