<svg xmlns="http://www.w3.org/2000/svg" width="22.536" height="24.18" viewBox="0 0 22.536 24.18">
  <path id="Gabun" d="M469.4,624.063l-7.277-7.529-1.735-4.433,1.6-1.535.448-2.495,2.047.448c.118-.123.3-.212.192-.448l-1.776-.91.561-2.544,6.814-.35.03-4.384h8.444l-.654.922-.076,2.86c.762.291,1.271-.338,1.765-1.242,1.3-.2,3.681.97,3.033,3.209-1.081,1.216-1.573,2.349-1.187,3.383a14.494,14.494,0,0,1,.845,2.63l-.655,5.957-1.358.982c-.61-1.008-1.737-1.372-3.311-1.174-.484-.607-.96-1.382-1.878-.158l-3.522,2.167.305,2.912-2.653,1.731Z" transform="translate(-460.389 -599.883)" fill="#fff"/>
</svg>
