<svg xmlns="http://www.w3.org/2000/svg" width="29.325" height="23.794" viewBox="0 0 29.325 23.794">
  <path id="Guinea" d="M63.433,420.459c-.139.435-.1.65.461.651.228.274,1.033-1.658.909.291l.719.077a2.542,2.542,0,0,0,1.2,2.652c.905.309,1.406,1.357,1.9,1.819l1.229,2.261c.846.576,2.012.157,3.832-2.3-.2-.818.932-1.254,4.311-1.042,2.768,1.994,3.6,4.321,2.565,6.966,1.238-.3,1.93-1.143,3.994-.616a4.167,4.167,0,0,1,.81,4.67c1.14.426,1.551,1.677,3.142-.431-.109-.483.284-.657.785-.286.3.225.809-.116,1.287,0l.841-2.166-1.03-.416.2-1.138,2.106.428c-.161-.776-1.211-1.786-.433-2.316.348-.358.187-.639-.166-.89l.044-.992c-2.042-.244-.877-2.5-.172-3.649L90.71,422.9l-.144-2.5-1.032.761-.386-.577,1.378-1.261-1.861-1.414a6.579,6.579,0,0,0-.445-3.413l-1.31-.285a1.051,1.051,0,0,1-.751,1.176q-.737-.222-.9.942l-2.322-.961L81.089,416.7c.234-.6-.365-.955-.742-1.4l-1.017.683c-.794.267-.894-.16-.885-.7.163-.174.368-.308.43-.583-2.868-.445-5.872-.267-8.495-1.845l-.822,0L69.2,417.3l-2.239.059a7.97,7.97,0,0,0-3.53,3.1Z" transform="translate(-63.365 -412.854)" fill="#fff"/>
</svg>
