<svg xmlns="http://www.w3.org/2000/svg" width="17.679" height="16.505" viewBox="0 0 17.679 16.505">
  <path id="Lesotho" d="M764.064,1133.687a9.551,9.551,0,0,0-2.326.517,4.008,4.008,0,0,0-1.422.84,2.513,2.513,0,0,0-.517,1.228c-.11.441-1,1.011-1.357,1.1a7.6,7.6,0,0,1-1.68,0,2.221,2.221,0,0,1-2.133-1.034,33.841,33.841,0,0,1-2.326-2.843,9.931,9.931,0,0,1-1.163-2.068,6.138,6.138,0,0,1-.13-1.939,2.1,2.1,0,0,1,1.1-1.938l.258-.13c.845-.423,1.055-1.378,1.68-2,.689-.689,1.582-1.3,2.327-1.939a8.7,8.7,0,0,1,1.68-1.034,11.446,11.446,0,0,1,2.457-.84c.646-.161,1.4-.382,1.939-.517.107-.026.215-.043.323-.065l.323-.065a2.354,2.354,0,0,1,2.133.775c.563.75,1.267,1.474,1.81,2.2.284.378.267,1.308.517,1.809a15.091,15.091,0,0,1,1.034,2,3.047,3.047,0,0,1-.452,2.261,7.014,7.014,0,0,1-1.551,1.875,14.055,14.055,0,0,1-1.552,1.292C764.754,1133.381,764.376,1133.5,764.064,1133.687Z" transform="translate(-750.996 -1120.922)" fill="#023f5f"/>
</svg>
