<svg xmlns="http://www.w3.org/2000/svg" width="16.604" height="17.624" viewBox="0 0 16.604 17.624">
  <path id="Liberia" d="M135.568,505.77l-3.462-1.218-12.2-9.992,3.861-3.23-.068-1.155,1.892-1.828c.563-.38,1.247-.115,1.895-.044,1.625,2.367,1.189,3.48.746,4.681.922.234,1.618,1.769,3.144-.422-.043-.609.33-.615.958-.248v1.163a1.568,1.568,0,0,1,.378,2.1c-.256.479-.431.971-.98,1.069l1.593.976c.452-.077.843-.413,1.8,1.6.2.282,2.585,1.28.61,3.65l-.166,2.9Z" transform="translate(-119.908 -488.146)" fill="#023f5f"/>
</svg>
