<svg xmlns="http://www.w3.org/2000/svg" width="26.74" height="24.213" viewBox="0 0 26.74 24.213">
  <path id="Libyen" d="M478.677,78.568a1.553,1.553,0,0,1-.525,1.581c-.4.282-1.693,1.232-1.693,1.232.11.58.246,2.032-1.013,2.229-.865.136-.412.835.167,1.784l.037,4.941s-.77.15-.715.354a2,2,0,0,0,.708,1.3,1.566,1.566,0,0,1,.345,1.29c-.037.421.437.6.548.6.866-.021,1.55-.433,2.37,1.829l4.069.125c.474.1.976.827.976.827L486.283,96,500,102.781l-.025-1.1c1.517.124,1.691-.051,1.691-.051L500.734,85.6c-.551-.756-1.094-1.5-.432-2.336a5.7,5.7,0,0,0-.161-1.394.839.839,0,0,1,.3-.882c-.007-.68-1.312-.628-2-.663-.9-.046-1.506-.17-1.349-.844,0,0-2.355-.846-3.266-.288-.484.3-1.505.769-1.691,1.376a1.234,1.234,0,0,0,.23,1.1c.426.725-1.012,3.215-2.655,1.223,0,0-2.158-.594-3.377-.861-1.193-.261-2.016-1.307-1.521-1.94.048-.062-3.238-1.013-3.238-1.013a3.752,3.752,0,0,1-2.9-.5Z" transform="translate(-474.932 -78.568)" fill="#fff"/>
</svg>
