<svg xmlns="http://www.w3.org/2000/svg" width="19.607" height="35.332" viewBox="0 0 19.607 35.332">
  <path id="Madagaskar" d="M1024.263,887.83l7.285-15.5a40.292,40.292,0,0,1,1.709-5.248c.558-.737,1.265-1.422.82-2.517l.158-1.5c.082-.454.332-.445.712-.079l.223.908c.271-.086.536-.178.516-.629l-.739-8.035-1.393-1.509-.805.667-.209,2.063-.465.409c-.244-.074-.6-.443-.5.392l-.691.758c-.786-1.457-.9-.164-.689.465-.021.275.057.746-.317.317l-.563.908.8.6h-.475l-1.029.745.158-.9-1.029,1.029.238,1.266-.694.028.136-.568c-.641-.421-1.162.471-1.737.777l.633,1.029-.792.079-.317-.95-1.276.21c.04.449-.476.58-.94.74l-.079-.633-.712.712-1.243.061-.242,1.071-1.68,2.43c1.284,1.128.763,3.674,1.108,5.54a14.971,14.971,0,0,1-2.216,3.878,3.2,3.2,0,0,0-1.54,1.9,6.257,6.257,0,0,0-.257,2.413c.208.71.6.468.618,1.178l.234,1.164c-1.175,4.522,1.748,4.455,2.378,5.559.286-.13.65.091.93-.06.621-.335,1.415-1.163,2.246-.888a2.161,2.161,0,0,0,1.722-.268Z" transform="translate(-1016.08 -853.713)" fill="#023f5f"/>
</svg>
