<svg xmlns="http://www.w3.org/2000/svg" width="12.863" height="32.243" viewBox="0 0 12.863 32.243">
  <path id="Malawi" d="M864.357,797.554l2.407,7.935-.71,7.045a20.068,20.068,0,0,1,4.854,5.676,4.5,4.5,0,0,1,.426,2.311l-.872,3.724-2.179.949.169,3.258-1.157.018c.6-1.53.025-1.244-.232-1.337a5.623,5.623,0,0,1-2.462-3.783,7.111,7.111,0,0,0,1.068-5.125l-2.138-.4c-1.651.4-1.972-.2-2.131-.753-.9-2.1-1.307-1.29-1.636-1.432l-1.275-1.755,2.237-4.147,1.745-.2L861.283,808l1.04-5.393.99-.73-2.859-5.651c.831.729,1.75.977,3.9,1.328Z" transform="translate(-858.489 -796.226)" fill="#fff"/>
</svg>
