<svg xmlns="http://www.w3.org/2000/svg" width="34.169" height="32.131" viewBox="0 0 34.169 32.131">
  <path id="Mali" d="M133.967,206.171l-3.215.087.152,18.551.848.3-.594,1.814-9.474-.536-1.09.764-.6-.22-.413-1.225-.542-.145c-1.067,2.332-1.231,2.061-1.627,2.46.065.239-.091.466-.014.685.24.684.391,1.377.029,1.673.494.439,1.13.789,1.313,1.422a2.7,2.7,0,0,1-.226,1.65c-.215.216.04.719.488.342l.435-.265c.143.228.459.352.413.694l.959-.656,1.172.487c.119-.18-.03-.449.425-.516.239.007.408-.165.478-.58l.643.156a3.99,3.99,0,0,1,.273,1.782l.949.717-.725.664.2.3.529-.352.078,1.269.668.614c.274-.272.711-.614,1.042-.443.312.162.457.8.751.6s.365-.4.842-.4c.359,0-.308-.62.139-.607.208.006.532-.239.891-.144s-.084,1.372.168,1.1a1.834,1.834,0,0,1,1.991-.265c.349-1.249-.333-2.4,2.06-3.842l1.056-2.224c1.408-.591,2.919-.322,4.213-1.858,1.627-1.087,3.253-1.9,4.132-1.661l1.643,0,.923-.788,4.419.055c.112-.217.174-.376.784-.677,0-.533.483-.563.816-.731l.173-6.549-1.659.239c-.655-.426-.1-.562-.1-1.509-.374-.841-.848-.968-1.315-.885-.41.073-.594-.508-.809-.464-.37.075-.776-.28-1.021-.8-.083-.178-.313-.259-.468-.365-.345-.237-.659-.419-.57-.788,0,0-7.89-6.027-11.641-8.926Z" transform="translate(-117.38 -206.171)" fill="#fff"/>
</svg>
