<svg xmlns="http://www.w3.org/2000/svg" width="36.716" height="25.547" viewBox="0 0 36.716 25.547">
  <path id="Marokko" d="M142.966,47.43l.485-3.721,2.916-1.505.658.188,1.035-.847,1.72.124.094-.82c3.6.176,4.324-.786,4.959-1.75l3.01-1.223h1.129l-.564-.752.188-.7-.094-.9c1.177-.154,2.629.035,2.638-1.2l4.888.068.658-1.5c-.934-.343-1.1-1.692-.976-3.127.093-1.065.009-3.488.009-3.488a2.855,2.855,0,0,1-.816-1.313c-.784-.145-1.746-.162-2.074-.632a12.472,12.472,0,0,0-3.283-.2c-1.863.187-2.629-.484-3.4-2.249-1.794-.117-3.7,3.738-5.08,5.644a14.376,14.376,0,0,0-7.432,4.421c.222.806-.168,1.116-.98,1.648-.525.344-2.371,3.291-1.747,4.937.008,1.286-.994,3.428-3.874,4.854a10.132,10.132,0,0,1-3.466,1.948c-.9.292-2.973.525-3.6,1.1l13,.988Z" transform="translate(-129.97 -21.883)" fill="#fff"/>
</svg>
