<svg xmlns="http://www.w3.org/2000/svg" width="12.706" height="14.769" viewBox="0 0 12.706 14.769">
  <path id="path12412-6" d="M1498.875,1143.238c.026-.807-1.22-.98-1.012-1.9-.106-.611.169-1.5-.543-1.812-.751-.579-1.639-.153-2.372.239-.9.2-1.089,1.236-1.508,1.917-.485.669-.084,1.885-1.136,2.055a2.521,2.521,0,0,0-1.658.813,6.814,6.814,0,0,0-1.518,2.538c.09.915-.708,1.69-.46,2.618,0,.61-.409,1.507-1.15,1.252-.876-.21-.574,1.017-.037,1.2a2.234,2.234,0,0,0,2.169.983,5.283,5.283,0,0,0,2.412.473,13.1,13.1,0,0,0,2.525-.543,3.25,3.25,0,0,0,1.951-1.41c.058-.668-.29-1.549.632-1.766a3.279,3.279,0,0,0,1.7-2.109,3.2,3.2,0,0,0,.185-2.7c-.073-.643-.806-1.172-.192-1.744l.017-.1h0Z" transform="translate(-1486.764 -1139.073)" fill="#fff" stroke="#0978ab" stroke-width="0.4"/>
</svg>
