<svg xmlns="http://www.w3.org/2000/svg" width="25.463" height="27.215" viewBox="0 0 25.463 27.215">
  <path id="Mauretanien" d="M59.346,179.123c.264-1.89-.911-4.546,2.76-4.621l.77-5.712,6.547.578.354-2.567,6.6,5.067-3.287.08.167,18.921.832.3L73.527,193l-9.686-.533-1.1.781-.6-.2-.421-1.283-.586-.145s-1.069,2.637-1.749,2.37c0,0-.3-.328-.645-.682a4.669,4.669,0,0,1-.863-1.06c-.324-.611-.549-1.593-1-1.523-.951.149-1.675-1.111-1.675-1.111a4.318,4.318,0,0,0-1.9-.087,16.5,16.5,0,0,1-2.392.123l.942-2.617.1-3.05-.574-.916c.307-.542,1.244-1.042.631-2.665-.07-.186-.4-.086-.4-.086l-.4-1.193.486-.487,7.651.481Z" transform="translate(-50.913 -166.8)" fill="#023f5f"/>
</svg>
