<svg xmlns="http://www.w3.org/2000/svg" width="23.485" height="35.616" viewBox="0 0 23.485 35.616">
  <path id="Mosambik" d="M813.268,828.682l.459,1.2-.035.6,1.589.119L819,832.05a9.547,9.547,0,0,1-.467,5.362,5.035,5.035,0,0,0-.081.867,3.161,3.161,0,0,1,.034,1.829,25.279,25.279,0,0,1-1.626,3.167,3.055,3.055,0,0,0-1.406,2.141l.372,9.189,1.407.091.375-1.3-.565.212c.086-.515-.032-1.03.508-1.544l4.516-1.785a6.005,6.005,0,0,0,1.3-1.613l-.527-.182.935-3.529-.48-.163-.389-2.97a1.3,1.3,0,0,1-.023-2.289l2.729-2.319.225.462,1.012-1.118-.223-.345.658-.121.2-.566,3.345-1.646.835.009a8.976,8.976,0,0,1,2.065-1.392l-.059-.5,1.114-.862c.267-.274.5-.681.847-.667l.049-.553-.212-.235.61-.914.154-.61-.1-.4-.373-.568.129-2.236c-.285-.277-.128-.465.025-.654l-.074-2.469.9-1.51a3.007,3.007,0,0,0-.094-1.241c-1.376.819-3.678,2.244-4.841,1.513a1.936,1.936,0,0,0-1.575.7,6.513,6.513,0,0,0-1.3-.076l-1.647.3c-.3-.357-.6-.712-1.292-.324l-2.4-.078-.375,3.755a9.244,9.244,0,0,1,2.749,3.437c.317.765-.257,1.869-.368,2.846l-1.192.516.062,1.673-.587.089c.143-.349.3-.706-.211-.75a2.965,2.965,0,0,1-1.214-1.987,4.112,4.112,0,0,0,.565-2.754l-1.156-.212c-.45.109-.972.1-1.089-.258-.312-.953-.614-1-.968-.907l-6.531,2.118Z" transform="translate(-813.268 -819.079)" fill="#023f5f"/>
</svg>
