<svg xmlns="http://www.w3.org/2000/svg" width="27.765" height="22.833" viewBox="0 0 27.765 22.833">
  <g id="Groupe_4034" data-name="Groupe 4034" transform="translate(-14.123 -17.122)">
    <path id="Nigeria" d="M372.8,424.172l-.476-.022-.156.834a6.558,6.558,0,0,1-2.449-.365c-1.95,1.214-3.5,1.016-4.292-1.787a3.753,3.753,0,0,0-2.625-2.416l-3.394.02.148-5.416a8.157,8.157,0,0,0,1.176-2.642c.907-.223.714-1.021.755-1.7.907-.6.312-1.543-.061-2.175l.059-1.762c.077-.5-.036-1.04.68-1.5.279-.343.558-.176.837-1.853.5-.382,1.022-.758,3.7-.673a6.5,6.5,0,0,1,2.777,1.9l.6-.029c.389-.274.509-.757,1.216-.783.4-.009.427-.4,2.34,1.105l1.995.186,1.853-1.335,3.321-.065c.484.2.882.645,1.509.452a8.251,8.251,0,0,1,2.784-1.653,6.652,6.652,0,0,0,1.377,1.578l-.315.252.4,1.606c.186.14.523.189.532.436.356,1.576-.527,2.063-1.571,2.411-1.33,1.035-1.664,3.875-2.428,5.935-1.486.439-1.981,3.187-3.117,5.446-1.1.214-1.373-.32-2.061-1.062l-2.388.155-.062.639c-1.525.8-1.876,2.6-2.664,4.283Z" transform="translate(-345.288 -385.371)" fill="#023f5f"/>
  </g>
</svg>
