<svg xmlns="http://www.w3.org/2000/svg" width="33.456" height="24.365" viewBox="0 0 33.456 24.365">
  <path id="Niger" d="M327.339,250.049l-.183,6.625c-.293.17-.7,0-.812.711-.326.189-.727.321-.8.7l-4.477-.043-.91.764-1.694.009a1.137,1.137,0,0,0,.248,1.047c.256.2.218.622.153.993l2.142,2.858.777.29c.431-.378.823-.489,1.019.782l2.653.376c.185-.424.141-1.012.621-1.225.722-.408.6-1.122.861-1.7.589-.281.212-.681,3.326-.651a7.422,7.422,0,0,1,2.43,1.693l.624.026c.018-.213.648-.652,1.033-.725.417-.227,1.159.168,2.147,1.036l1.761.158,1.691-1.213,2.956-.076c.446.174.776.573,1.434.408a7.093,7.093,0,0,1,2.415-1.478,2.5,2.5,0,0,1-.192-1.534,1.034,1.034,0,0,0,.6-1.039l3.571-3.963.662-6.32.5-1.271a2.551,2.551,0,0,1-1.944-2.224c-.122-.768.052-1.759-.024-3.192l-.636.109a2.987,2.987,0,0,0-1.134-1l-5.008-.182-12.687,8.364-3.126.887Z" transform="translate(-318.441 -240.797)" fill="#fff"/>
</svg>
