<svg xmlns="http://www.w3.org/2000/svg" width="33.65" height="32.662" viewBox="0 0 33.65 32.662">
  <path id="Demokratische_Republik_Kongo" data-name="Demokratische Republik Kongo" d="M529.8,550.043c-.3.9-.664,1.543-1.041,2.525-.495,1.288-.385,3.272-.637,5.028-1.308.593-1.722,1.543-2.391,2.392l-.522,2.5c-.944.924-1.823,2.111-2.96,2.262-.069-1.393-1.276-.723-1.409-.175-.575.38-.762-.015-1.087-.135a1.442,1.442,0,0,0-.72,1.159c.058.806-.308.762-.572.921l.155.614,2.157-.738,4.718.085.438.256c1.072,3.976,1.942,3.584,2.712,3.778a3.511,3.511,0,0,1,2.156-.225l.463-1.808,1.259.071.161-.33.7.109.011.731,1.518-.111.158,4,.866,1.8-.661.9.6.509.322-.644,1.991-.035.722-.242.625-.011.226.89,1.161-.384a1.163,1.163,0,0,0,.331.606,2.974,2.974,0,0,0,1.709.847c.443.007.8-.448,1.187-.367a2.287,2.287,0,0,0,1.811,1c.488.756.815,1.673,2.2,1.53l.543.377-.039-1.935a1.725,1.725,0,0,1-2.045-.76,6.469,6.469,0,0,1,.759-2.137,8.066,8.066,0,0,0-.268-2.3,2.326,2.326,0,0,1,.469-1.19l3.122-.765c-.323-1.75-1.46-2.105-1.787-3.344a14,14,0,0,1-.382-5.108,1.592,1.592,0,0,0-.988-1.5l.932-1.335.755-.828.117-2.9,1.058-1.607,1.7-1.533-1.027-.668.005-1.83-2.128-1.8c-.19.018-.278.206-.411.318a2.729,2.729,0,0,1-1.233-.129c-.22.494-1.129.234-1.236-.047-.031-.082.04-.248-.084-.294a4.841,4.841,0,0,0-.812-.835l-.886.043-.289.332-.326-.27-.2.317-.424-.554-1.913.166v.308l-.851.157-.135-.327-2.17.769c-.607-.441-.831-.2-1.186-.216l-.382.831c-1.8-.068-2.555-.069-2.852-.47-.571.628-.709-.146-1.059-.236-.2-.919-.72-.646-1.083-.956a4.835,4.835,0,0,0-1.355,1.354,4.217,4.217,0,0,1-.273,1.6Z" transform="translate(-518.459 -547.063)" fill="#023f5f"/>
</svg>
