<svg xmlns="http://www.w3.org/2000/svg" width="18.576" height="35.438" viewBox="0 0 18.576 35.438">
  <g id="Groupe_4038" data-name="Groupe 4038" transform="translate(-596.544 -714.62)">
    <path id="path12496-4" d="M603.9,705c.378.322.866-.189,1.255.086.524.085.382.866-.1.877-.3.153-1.037.355-.713.8.358.184.85.22,1.053.6.058.589-.664.5-1.012.713-.529.234-.225.817-.169,1.226a7.52,7.52,0,0,1-.22,1.269c-.268.25-.765-.191-.936.3-.229.266.189.587-.031.808-.394.067-.382-.524-.8-.349-.47.038-.594-.544-1.037-.641-.261-.169-.479-.317-.772-.137-.421.068-.223-.441-.239-.677a1.375,1.375,0,0,0-.286-1.019.493.493,0,0,1,.672-.641.561.561,0,0,0,.931-.274,1.877,1.877,0,0,1,.047-1.084c.1-.412-.279-.8-.022-1.206.07-.5.538-.551.94-.531.245-.2.432-.684.844-.434.211.092.338.324.6.306Z" transform="translate(9.63 10)" fill="#fff"/>
    <path id="path12500-6" d="M592.745,729.218a6.413,6.413,0,0,1,1.921,2.209,3.494,3.494,0,0,1,1.406,2.389c-.148.974-.268,1.962-.457,2.918-.574,1.138-1.905,1.631-2.515,2.754-.259.918-1.514,1.235-1.478,2.27-.256.891-1.528.677-1.951,1.485-.7.148-1.917,0-1.633,1.122a.816.816,0,0,1-1.224.673c-.387.551-1.4.94-1.419-.081-.038-.79.736-1.586.191-2.337a2.917,2.917,0,0,1-1.116-2.119,8.906,8.906,0,0,1-.9-3.906,2.691,2.691,0,0,1,.571-1.91c.337-.756.58-1.656,1.368-2.07a5.153,5.153,0,0,1,2.5-1.492c.954-.42,1.26-1.719,2.38-1.872a4.912,4.912,0,0,1,2.362-.034Z" transform="translate(13 4.465)" fill="#fff"/>
  </g>
</svg>
