<svg xmlns="http://www.w3.org/2000/svg" width="30.423" height="24.219" viewBox="0 0 30.423 24.219">
  <path id="Senegal" d="M37.712,343.407c-.939,1.614-1.577,2.456-1.6,3.766-.062,2.994-3.051,3.948-4.546,6.125,1.392,2.028,2.906,4.021,3.142,6.389h5.761c1.243-1.659,3.073-1.116,5.158.382l3.326.246.733.943-2.409.838a14.119,14.119,0,0,1-4.5-1.832,5.512,5.512,0,0,1-3.456.784l-.629,1.047-5.028.209a10.272,10.272,0,0,0-.314,4.085c1.21-.112,2.388.066,3.663-.625a6.457,6.457,0,0,0,4.926-.841l8.689.1c3.265,1.868,7.338,2.06,11.108,2.306.178-1.968,1.277-3.925-3.009-6.913.658-.847.412-2.8-.164-4.2-.326-.8.3-1.047,0-1.9a14.141,14.141,0,0,1-1.584-1.518A32.878,32.878,0,0,1,54.649,350a9.914,9.914,0,0,0-2.088-3.854c-2.8.458-4.527-2.692-4.527-2.692a10.564,10.564,0,0,0-4.678-.115c-2.715.142-3.267.477-5.644.072Z" transform="translate(-31.563 -343.115)" fill="#fff"/>
</svg>
