<svg xmlns="http://www.w3.org/2000/svg" width="25.902" height="37.114" viewBox="0 0 25.902 37.114">
  <path id="Tracé_4509" data-name="Tracé 4509" d="M-12891.964,2342.986c-.1-.4-2.6-1.85-.274-2.318s2.238-1.587,3.887-1.247,1.141-.526,2.993-.728,1.157-7.059,1.157-7.059.465-1.585,1.867-.469,2.979,2.318,2.979,2.318.2.062-.467,1.7,0,1.943,0,1.943a3.8,3.8,0,0,1-.369,2.091c-.521.912.836,2.609.836,2.609l2.568,3.128s.541-.273,1.395.555,2.48,2.277,2.682,1.628,2.619.943,2.619.943h1.094s-2.143,4.828-1.978,5.486.229,2.216.884,2.686-1.323,1.745-1.323,1.745v1.921l1.323,4.286a3.573,3.573,0,0,1,1.75,2.895c0,1.918-1.173-.286-1.173-.286a.86.86,0,0,0-1.095.614c-.286.874-1.406-.614-1.406-.614l-4.128-5.624s-.759-1.781-2.538,0-.381-3.192-.381-3.192a.961.961,0,0,1,1.34,0c.641.643,2.33-.648,2.33-.648l-2.112-2.856s-.484-1.236.718-1.239-1.822-1.187-2.568-1.212-1.99-3.271-1.99-3.271l-2.646-.182-4.361-3.08-.715.8s-.569-.333-.547-.8-.562,0-.4-.555.944,0,.944,0l-.547-.885h-1.99l-.635.391-1.866-.93s-.545-.862.522-.864a1.362,1.362,0,0,1,1.344.864A.452.452,0,0,0-12891.964,2342.986Z" transform="translate(12894.243 -2330.767)" fill="#fff"/>
</svg>
