<svg xmlns="http://www.w3.org/2000/svg" width="22.412" height="33.066" viewBox="0 0 22.412 33.066">
  <path id="Somalia" d="M1009.88,425.458l-.808,1.259c-.785,1.132,1.368,2.863,3.139,4.516l6.843,2.2,2.206-.092-6.646,7.6-2.686-.053a10.187,10.187,0,0,0-2.3,1.6,20.544,20.544,0,0,1-2.223,1.052,13.636,13.636,0,0,1-1.919,2.7l.021,8.825,1.346,1.693,3.1-3.468,5.19-4.9.6-.072,2.175-2.057.089-.412a13.212,13.212,0,0,0,3.05-3.179,16.34,16.34,0,0,1,2.444-3.533l2.043-5.9a4.5,4.5,0,0,0,.945-1.479c.1-.619.474-.838.758-1.185l.233-2.955c.662.093.343-1.216.38-2.016-.256-.228-.541-.6-.006-.906l0-.737c-.481.04-.965-.509-1.437-.138a3.787,3.787,0,0,1-2.28,1.029c-1,.083-1.816.662-2.236.52a2.726,2.726,0,0,1-2.663.429c-.748.666-1.239,1.531-3.643.92l-1.532,1.1C1011.686,428.446,1011.07,426.533,1009.88,425.458Z" transform="translate(-1005.485 -423.683)" fill="#fff"/>
</svg>
