<svg xmlns="http://www.w3.org/2000/svg" width="26.397" height="24.559" viewBox="0 0 26.397 24.559">
  <path id="Sudan" d="M700.972,240.438l-.534.543-.439-.1-.206.887-.948.248-.086.721-.838.1-.4-.417-12.968.393.156,3.249a7.82,7.82,0,0,1-1.568-.018l.024,1.034.15,6.145-1.758.1.021.656-1.006,1.273.064.905-.337.153c-.032.565-.1,1.06-.334,1.215l.012.733.733-.153a3.635,3.635,0,0,0,.874,2.313l.089.549-.328.046a10.974,10.974,0,0,1,1.555,2.12c-.616,1.907.26,1.638.792,1.871l0-.028,1.427-2.792h1.325l.442.847.638-.061h1.92v-.724l2.006.064.015.574.917-.294v-.558l1.049-.387,1.586,1.043,1.684-2.16-.1-1.362-.583-.436h1.123v-.558l.638.258.592,3.292.733.279.439.834v1.157l.758-.279h0l-.025-2,.494-.733.5.006.245-1.267c.592-.729.825-1.664,1.776-2.187l.3-2.4a17.391,17.391,0,0,1,.586-4.7c.245-.1.525.085.724-.383l1.1-.555a1.257,1.257,0,0,0,.353-.828c-.149-.332-.361-.272-.558-.313-.323-.621-.86-.676-1.325-.917l-.65-3.936-.515-.546C703.448,241.531,701.787,241.281,700.972,240.438Z" transform="translate(-679.969 -240.438)" fill="#fff"/>
</svg>
