<svg xmlns="http://www.w3.org/2000/svg" width="28.474" height="22.029" viewBox="0 0 28.474 22.029">
  <path id="path3246" d="M742.117,429.062h0l-1.1.406v-1.683l-.638-1.214-1.067-.406-.862-4.79-.928-.375v.812h-1.634l.848.634.143,1.982-2.451,3.142-2.308-1.518-1.527.563v.812l-1.335.428-.022-.835-2.919-.094v1.053h-2.794l-.929.089-.643-1.232h-1.928l-2.076,4.062,0,.04c.024.01.054.011.076.022.3.419.424.931,1.808.772l.8.732c-.173,1.213,1.623,1.881,2.674,2.754l.978,1.928c.841.409,1.852.584,1.977,2,.56.318.78.784,1.192,1.2.189.189.013.37.2.518.533.418,1.493.521,1.625-.08a4.027,4.027,0,0,0,1.531.259c.4-.048.362-.424.759-.509l2.857,2.5.509-.371a15.773,15.773,0,0,0,5.883-.089l2.339-2,3.236-.116.031-1.683-1.665-.576-1.152-2.549-1.669-1.411c.292-.449-.505-.9-.893-1.348a2.345,2.345,0,0,1-1.7-.281l.428-.549-.009-.79,1.531-.027c.3-.187.621-.269.848-.736Z" transform="translate(-717.937 -421)" fill="#fff"/>
</svg>
