<svg xmlns="http://www.w3.org/2000/svg" width="28.133" height="29.542" viewBox="0 0 28.133 29.542">
  <path id="Tasania" d="M819.359,644.111l-.925,1.379-7.023.12,1.151,2.365c-1.813,1.829-.66,2.176-.229,2.883-.8,1.481-1.407,3.289-3,3.35-.4.1-.693,0-.767.492a13.967,13.967,0,0,0,.791,4.909c.474,1.062,1.312,1.781,1.766,2.671a6.423,6.423,0,0,1,.72,1.852l.974,1.1c.411-.122.869-.011,1.517,1.052l2.923.965a5.175,5.175,0,0,0,2.6.919l1.532,5.056,2.863.073a1,1,0,0,1,1.485.359,10.856,10.856,0,0,1,3.42-.281,2.219,2.219,0,0,1,1.913-.772c1.1.877,4.237-.906,5.589-1.779a4.057,4.057,0,0,0-1.488-1.284,6.021,6.021,0,0,0-.472-2.149c-.284-.448-.5-.88-.316-1.211l-.664-1.451.417-.136a3.5,3.5,0,0,1,.559-2.844c-.453-.937-2-1.681-1.907-2.792l1.317-3.709-3.5-2.315-.579-2.062-10.679-6.756Z" transform="translate(-808.533 -644.111)" fill="#fff"/>
</svg>
