<svg xmlns="http://www.w3.org/2000/svg" width="14.274" height="28.586" viewBox="0 0 14.274 28.586">
  <path id="Tunesien" d="M462.406,8.79c-.729.025-3.586-1.464-5.191.871a2.236,2.236,0,0,0-1.276,1.775c-.105,1.91-.287,7.855-.287,7.855-.2-.321-1.632-.079-1.858.891-.307,1.318-1.793.973-1.911,1.639-.237,1.341.933,2.574,2.311,3.776.353.308-.131,2.014.219,2.326a10.425,10.425,0,0,0,2.961,1.6,54.689,54.689,0,0,0,1.216,7.387c.288.18,3.34-.868,2.288-5.159-.122-.5,6.256-2.563,5.111-6.554-.119-.415-1.157.076-1.326-.677-.378-1.69-.33-2.106-.972-2.36-.323-.127-1.657,1.154-1.928.99-.605-.366-1.36-1.217-1.033-1.638.563-.726,4.63-3.247,4.671-4.637.061-2.069-.7-2.268-1.717-2.819-.576-.313-.369-1.293-.183-1.852.114-.343,2.31-1.09,2.057-1.884-.172-.539-.49-.621-.607-1.043-.086-.311-1.745,1.422-1.85,1.155a8.151,8.151,0,0,0-.693-1.644Z" transform="translate(-451.852 -8.345)" fill="#fff"/>
</svg>
