<svg xmlns="http://www.w3.org/2000/svg" width="33.514" height="28.276" viewBox="0 0 33.514 28.276">
  <path id="Sambia" d="M706.212,774.905l-5.165,1.274a4.964,4.964,0,0,0-.7,1.664c-.034.18.122.551.177,1.058.109,1,.449,2.764.141,3.24a10.226,10.226,0,0,0-1.168,3.228,3.894,3.894,0,0,0,1.74,1.322c.679.18,1.442.095,1.608-.16l.081,3.26a5.774,5.774,0,0,1-.832-.609c-1.084-.092-2.062.488-3.656-2.527a3.725,3.725,0,0,1-2.978-1.641c-.434-.114-1.158.48-1.811.626a4.746,4.746,0,0,1-2.881-1.337,1.8,1.8,0,0,1-.592-1.058l-1.922.638L687.9,782.4l-.8.026-.684,5.569.629.634-5.863-.152-.283,10.437,3.266,2.887,4.426-.695.648.973.281.655,3.464.037.473.415.647-.17a11.747,11.747,0,0,1,5.289-3.879l.071-1.622a6.108,6.108,0,0,1,4.513-.987l-.635-1.606,8.6-2.7-.917-1.34,1.552-2.891,1.2-.141-.776-1.058.705-3.808.705-.494-1.41-2.75-.643-1.274-3.3-1.107c-1.122-1.595-1.385-1.295-1.734-1.2l-1.125-1.252Z" transform="translate(-680.908 -774.905)" fill="#fff"/>
</svg>
