<svg xmlns="http://www.w3.org/2000/svg" width="28.547" height="26.938" viewBox="0 0 28.547 26.938">
  <path id="Simbabwe" d="M731.63,909.966l1.136,2.3c.373.434.859.838.826,1.543a31.71,31.71,0,0,0,3,3.86,3.685,3.685,0,0,1,1.933,1.217,3.111,3.111,0,0,0,1.973,1.3c-.4,2.34.647,4.354,1.745,4.774a5.116,5.116,0,0,1,3.467,1.192c2.648.316,2.958.684,3.584,1.044,2.169-.725,3.18.486,4.414,1.32a5.756,5.756,0,0,1,2.516-3.69,51.262,51.262,0,0,0,2.675-5.251c.659-1.1.128-2.259-.031-3.4l.175-1.456c1.6-4.019,1.111-6.418.851-9.245l-6.507-2.511-2.734-.195.091-.926c-2.318-.751-4.2.261-5.932,1.215l-.078,2.134c-5.323,2.374-5.606,3.665-7.071,5.158l-.794.246-.647-.573-4.595-.056Z" transform="translate(-731.63 -901.58)" fill="#fff"/>
</svg>
