<svg xmlns="http://www.w3.org/2000/svg" width="25.227" height="22.863" viewBox="0 0 25.227 22.863">
  <path id="Aegypten" d="M714.485,122.048,732.7,121.5l.587.58,1.2-.152.124-1.015,1.334-.368.282-1.249.586.193.737-.769-.4-1.968.637.022-1.55-1.38-4.253-7.024-.019-.853a5.756,5.756,0,0,1-2.2-2.525l-.039-.655-.642-.467.168-1.039,1.906,2.548c.171.2-.021.338.133.551a10.534,10.534,0,0,0,1.862,1.79c.258-.087.561-.025.689-.546l.5-3.309-2.235-4.555c-1.51,1.056-3.019,1.478-4.528-.094l-1.845.141c-.422.181-.87.457-1.114.015l-2.976,1.739-4.929-1.1a6.548,6.548,0,0,0-2.142-.3c-.627.383-1.073.087-1.519-.21-.254.441-.521.886-.278,1.147l.2,1.795c-.436.7-.839,1.424.54,3.08l.971,16.514Z" transform="translate(-712.563 -99.222)" fill="#fff"/>
</svg>
