<svg xmlns="http://www.w3.org/2000/svg" width="25.139" height="26.43" viewBox="0 0 25.139 26.43">
  <path id="Tracé_4738" data-name="Tracé 4738" d="M87.95-75.9v8.132s2.422,1.5,2.156,4a3.1,3.1,0,0,0-.265,2.237s.341-.455,1.251-.19,1.555.152,1.82-.341.872-.152.948-1.062,1.062.19,1.441-1.327.8-2.427,2.692-1.1,3.508,1.233,4.649.452l.961-2.581,1.621-.3a3.452,3.452,0,0,0,1.2-2.1c0-1.081,1.561-1.441,1.561-1.441s1.628-.84,1.954-1.921a3.19,3.19,0,0,1,.867-.24c.3,0,1.321,0,1.321-.84l.961.06s-.84-1.011-.84-1.436-2.281-.905-2.581-.845-.18-1.261-.961-1.2l.3-1.861h-.961s.3-1.321-1.921-1.921c0,0-1.861-1.381-3.542-6.183a1.923,1.923,0,0,0-2.064.84s.263-1.561-2.018.66l-.6.48-.78-1.621-.78-.06-4.022.961H90.87v10.686Z" transform="translate(-87.95 87.963)" fill="#023f5f"/>
</svg>
