<svg xmlns="http://www.w3.org/2000/svg" width="25.801" height="38.294" viewBox="0 0 25.801 38.294">
  <g id="Groupe_1846" data-name="Groupe 1846" transform="translate(0)">
    <path id="Tracé_1054" data-name="Tracé 1054" d="M305.659,67.5h0Z" transform="translate(-286.919 -67.5)" fill="#023f5f"/>
    <path id="Tracé_1055" data-name="Tracé 1055" d="M152.841,103.906l0-.014,0-.008-.088-.074,0-.03.022-.036v-.011l0-.016-.019-.066-.019-.041-.008-.019-.022-.069-.005-.061-.011-.017-.006-.005-.044-.052-.052-.072-.006-.033-.005-.019-.011-.022-.019-.044-.052-.039-.011-.014,0-.022-.014-.019-.011-.03.014-.019.011-.028.005-.041,0-.022-.014-.019-.022-.022-.017-.025,0-.03.014-.061.027-.052.008-.03.005-.028,0-.066-.049-.1-.008-.047.005-.022.011-.05.008-.047.011-.027.022-.028.016-.03-.022-.022h-.044l-.028-.014-.006-.014.017-.014,0-.011-.014-.008,0-.011.014-.011-.008-.044.008-.022,0-.014-.014-.008-.005-.014-.006-.022,0-.022-.014-.03,0-.014v-.008l.008-.011.066-.027.019-.033.022-.017.011-.014.005-.044-.011-.058v-.025l-.041-.11-.005-.038-.047-.041-.006-.033-.017-.038-.03-.047-.022-.025-.006-.016,0-.039-.016,0-.022-.017-.025-.008-.008-.011v-.022l-.022-.014-.011-.019-.033,0-.014.005-.017-.005h-.014l-.017.011-.011.03-.008.006-.008-.006-.03-.036-.061-.074-.025-.039-.027-.011-.041-.069-.036-.072,0-.005-.014-.019-.033-.039-.011-.005h-.047l-.008-.006-.006-.022-.019-.008-.052,0h-.019l-.017.008-.025.016-.052-.005-.025.028-.022-.022-.014-.022-.033-.03-.011-.011-.008-.014-.091-.107-.014-.005-.08-.107-.025-.033-.019-.011-.022-.028-.011,0-.039-.049-.11-.132-.011-.006-.022-.019-.019-.03-.008-.017-.074-.08-.039-.052-.151-.176-.055-.061-.019-.03-.1-.118-.027-.022-.019-.027-.055-.058-.025-.025-.014,0-.1-.107-.055-.052-.063-.074-.022-.017-.019-.022-.176-.19-.039-.039-.072-.085-.006-.006-.011-.005-.058-.061-.061-.063,0-.011-.05-.05-.055-.083-.022-.047-.008-.022-.038-.052-.14-.22,0-.017-.033-.047-.025-.039,0-.017-.014-.011-.038-.074-.091-.146-.022-.085-.011-.041-.008-.014-.016-.03-.085-.008v.005l-.022,0,.011-.033.022-.019h.005l.019,0,.022-.017.05-.008.022-.017.027,0,.03-.014.085-.014.03-.033.019,0,.011-.008.03,0,.025-.011.011-.011-.011-.019-.006-.025-.016-.005h-.044l-.028.014-.011-.005-.011-.039-.022-.039-.006-.036-.017-.019-.014-.006-.008-.022-.027-.005-.011-.011-.027-.058,0-.017,0,0,.019-.025-.011-.019.005-.019-.008-.022.011-.017-.006-.008-.014,0,0-.008,0-.039-.017-.038v-.017l.017-.025V97.2l-.014-.014-.006-.017-.014-.017,0-.017.011-.014,0-.022.005-.025,0-.008,0-.014-.019-.014.005-.019-.005-.017,0-.017-.008-.041-.022-.05-.011,0-.008,0-.008-.005-.008-.019-.027-.025-.014-.041-.025-.033-.027-.025.006-.014,0-.008L149,96.708l-.008-.008-.008,0-.014.014-.014-.006-.006-.011,0-.027-.028-.039,0-.014.006-.011-.014-.05-.014-.016,0-.011-.008-.005h-.028l-.019,0-.041-.011-.008-.025-.008-.008-.033-.008-.008,0h-.028l-.011.008-.033-.005-.008-.005,0-.019-.011-.011-.025-.008-.011-.005-.022-.017-.027-.008-.036-.025-.038,0-.017,0-.014-.016-.008-.025-.036-.044-.017-.008-.025,0-.011-.008-.011-.039-.022,0-.008-.008-.03,0-.008,0-.008-.022-.03-.019-.025,0-.028-.047-.022-.008-.03-.03-.011-.019-.019-.017v0l-.008-.017-.022-.019-.006-.022-.047-.008L148,95.919l-.016-.008-.008-.014h-.017l-.014-.011.008-.03-.008-.036-.019-.022-.008-.019.008-.055-.011-.052.008-.033v-.052l-.008-.025,0-.066-.005-.047-.019-.022-.005-.019-.027-.025-.008-.014.028-.008.014-.014,0,0,.006-.014,0-.022.011-.019-.006-.028.008-.016-.028-.113-.019-.022.008-.019-.011-.028.022-.014.008-.014,0-.011-.03-.044-.006-.019-.017-.058-.022-.058-.022-.017,0-.011.005-.019.017-.019-.006-.014.016-.058-.008-.028-.025-.025-.005-.025-.019-.011,0-.008.011-.022.008-.014-.017-.022,0-.008.014,0,.005-.008-.005-.005-.006-.005v-.008l.028-.011.006-.008-.025-.08,0-.036,0-.011-.019-.019-.006-.019.008-.039.038-.016.005-.014.008-.014-.011-.069V94.18l-.052-.2-.008-.014-.011-.033-.036-.017-.011-.03-.014-.014h-.036l-.03-.017-.016,0-.017,0-.022.008-.027-.011h-.03l-.03-.025h-.039l-.022-.017-.022-.03-.005,0-.033-.022-.072-.063-.017-.041.008-.005.014-.025.008,0h0l.014-.022.03-.014.008-.011v0l-.017-.014v-.014l.017-.017,0-.03.011-.028.044-.088.025-.028,0-.039-.008-.014.005-.011.014,0,.006,0,.017-.017.025-.005.019-.014.011-.028-.011-.072,0-.019.016-.061v-.022l-.011-.019.008-.017.011,0,.017-.017.014-.033v-.028h0l.038-.041v-.014l-.044-.05-.019-.044-.011-.055-.008-.028-.03-.044-.008-.039,0-.039.006-.022.017-.036v-.025l.014-.033.016-.033v-.041l.022-.077.033-.066.006-.1-.006-.091,0-.011v-.2l-.025-.094.005-.055,0-.063v-.019l0-.033-.038-.072-.033-.011-.03,0-.05.05-.017.011-.022.011-.03-.022-.094.025-.044,0-.014-.008-.017-.005-.016-.019-.025-.019-.008-.025-.005-.044-.014-.011,0,0-.008-.008-.017-.025-.019-.066-.019-.03L147,91.265l-.047-.047-.019-.061-.027-.036L146.9,91.1v-.014l.014-.047,0-.011.019-.039-.016-.033v-.011l.05,0h.014l.036-.019.044-.014.011-.008.008-.019.083-.069.022-.011.017-.022.014-.036.038-.03.019-.036.008-.014.025-.014.069-.058.022-.011.016,0,.019.005.151-.052.036-.019.022-.006.03-.008.245-.088.052-.025.039-.033.011-.019.077-.118.063-.1.011-.005.017-.019.008-.028.03-.047v-.011l-.022-.069V89.9l.014-.03v-.011l.008-.016.072-.138,0-.019.03-.047.038-.085.014-.025.014-.025.017-.039.083-.2.091-.187.025-.055.008-.03.028-.063.039-.091.008-.005.017-.033.022-.063.014-.016.027,0,.008,0,.047-.016.014,0,.019,0,.036-.025.006,0,.011,0,.033,0,.041.008.014.008.014,0,.05-.05.016-.039.006-.072.008-.022.036-.052.014-.022,0-.008.005-.025.022-.041.008-.044.03-.041.014-.025.017-.069.025-.033.022-.047.028-.014.008-.019,0-.011-.011-.058.025-.149V87.8l.006-.019.022-.019.005-.028.016-.011,0-.019.014-.044.008-.011.05-.019.022.011.019,0,.005-.011,0-.014.005-.011.036-.085.052-.1-.022-.011-.008-.011-.011-.1.019-.036.033-.039.008-.03.025-.025-.008-.008-.014,0-.011-.016h-.022l-.019-.008.025-.022V87.09l0-.017.017-.016.03-.014.036-.058v-.019l.008-.011.036-.008.022-.022.019-.011.028-.028.052-.055.022-.022.03-.019.052-.044.016-.005.014-.008.03-.036.047-.022.028-.039.039-.017.047-.05.016-.016.025-.014.041-.039.028-.017.005-.011,0-.028.011-.014.03-.014.008-.014.006-.03.014-.014.033-.008.025-.055-.008-.022,0-.006,0,0,.038-.019.019-.019,0-.008,0-.011.022-.022.017,0,.008-.005-.005-.025.025-.039.016-.008.03-.016.022-.041.016-.005.041-.036.017-.022.016-.019.03-.019.022-.03.011-.005.005,0,.011-.014,0-.014-.017-.017-.006-.016.006-.022.038-.044.019-.058,0-.028-.014-.019v-.011l.019-.025.022-.03.011-.05-.008-.017,0-.063,0-.025-.008-.027.008-.028-.014-.022v-.019l.017-.028.006-.016,0-.014-.019-.03-.044-.006-.113-.028-.077-.017-.036-.019-.019-.022-.016-.039L150.5,85.1l-.014-.011-.05-.088-.017-.022-.017-.033-.036-.072-.1-.278-.006-.033-.011-.011-.011-.03-.058-.052-.014-.047-.014-.039.006-.047.017-.1,0-.014-.039-.08-.022-.041-.022-.041-.047-.1-.014-.019-.1-.2-.028-.055-.022-.036-.025-.052-.008-.033-.036-.055-.019-.039-.052-.228-.011-.044-.016-.066-.011-.039-.016-.074-.008-.027-.011-.03-.008-.03-.014-.044-.019-.06-.017-.052v-.025l-.014-.039-.022-.027-.006-.039-.008-.03-.014-.03-.008-.047,0-.047,0-.022-.005-.008-.061-.011-.052-.063-.058-.05-.036-.019-.061-.03,0,0-.03-.014-.039-.022-.033,0-.036.005-.025,0-.03-.008h-.05l-.033.011-.036,0-.094-.027h-.027l-.036.005-.011-.014-.006-.022.011-.069.008-.033L148.8,82.1l-.036-.036h-.014l-.058-.022-.014-.025-.025-.006-.033.008h-.03l-.05-.03.017-.019.033-.025-.033-.027-.017-.017-.011-.005,0-.011,0-.017-.022-.049-.008-.008-.025,0-.022-.011-.008,0-.005.008-.022-.019-.016.022-.022-.005h-.006l-.005.005h-.011l-.017.022-.047-.005-.022.008-.022,0-.049-.033h-.028l-.03-.005-.066-.005-.016,0-.044-.022-.05-.072-.033-.025-.039-.05-.066-.041-.052-.047-.072-.074-.022-.033-.019-.017h0l-.008-.008-.033-.03-.03-.041-.019-.011-.1-.1-.044-.038-.061-.058-.038-.019-.039-.027-.033-.008-.044-.008-.014-.005-.019-.022-.066-.107v-.016l.03-.039v-.016l-.022-.025-.041-.03-.006-.011-.03-.011-.03-.019L147,80.76l-.011-.014-.025-.044-.008-.017-.019-.022-.036-.03-.008-.017-.014-.005-.03-.036-.044-.028-.036-.036-.014-.036.008-.05v-.011l.006-.011.03-.066,0-.025.008-.041,0-.022-.019-.047-.03-.025-.077-.039-.03-.039-.025-.036-.011-.03-.011-.014L146.591,80l-.036-.052h-.061l-.033-.011-.038-.014-.041-.033-.05-.028-.019-.028-.03-.066-.036-.052-.044-.033-.036-.005-.017-.011,0-.039-.016-.055-.014-.008-.033,0-.033-.014-.033-.028-.025-.017-.047-.034-.091-.1-.03-.047-.044-.036-.017-.019-.011-.022-.008,0-.047-.047-.022-.052-.027-.069-.019-.017L145.568,79l-.005-.019-.005-.061.014-.063.005-.055.047-.1.036-.047.063-.041.025-.011.011-.014.017-.041.069-.063.008-.016.036-.041.025-.033.1-.132.028-.036.014-.017.036-.055.014-.044.011-.074.014-.022.008-.03.005-.047h0l.027-.055.03-.025.066-.017.019-.008.006,0,.044,0,.077,0,.022,0,.03-.005.036,0,.017,0,.014,0,.063.014.019,0,.049.005.019-.005.011,0,.011-.005.074-.008.083,0,.036,0,.055-.008.1,0,.025-.008.044-.008.022,0,.028,0,.058.011.085.019.008,0,.091.033.077.025.03,0,.025.011.03.008.044.008.039.022.1.022.1.033h.028l.022-.005.028,0,.063,0,.03,0,.022.016.028.011.038.022.03.008.025.014.058.011h.066l.016-.005.022-.008.052-.027.014-.014.011,0,.022-.028.049-.041.039-.022.055-.039.03-.008h.019l.052-.011.113-.047.008-.005.028,0,.019,0h.011l.011.005.041.014.036.025.025.027.05.028.019,0,.033.014h.014l.041.008.061,0,.017-.011,0-.033.014-.019.022-.011.049-.03h.033l.058.019.083.047.017.014.049.019.028,0,.08-.107.05.019.044.017.061.017.077.014.017.008.022.005h.041v0l.03.008.028.017.019,0,.066.022.124.055.039.011.033.017.019,0,.047-.005.069,0,.061-.008.019-.008.022-.008.072-.022.085,0,.093-.016.05-.008.036-.008.077-.03.017-.005.047,0,.052-.014.066-.022.022-.008-.006-.006-.008-.044,0,0L151.1,77.8l-.088-.063L151,77.729l-.05-.017-.033-.033-.041.005-.052-.044-.036-.017-.027,0-.028-.03-.036-.025-.063-.052-.017-.008-.028.005-.011.014-.014-.005-.011-.033-.019-.033-.038-.025-.025-.006-.019-.066-.036-.03-.025-.041-.019-.066-.016-.028-.047-.03-.044-.039-.014,0-.014-.017-.022-.052-.055-.072-.05-.027-.038-.041-.014-.028-.008-.014-.016-.022L150,76.835l-.019-.014-.03-.017-.066-.014-.005-.011.008-.019-.014-.036-.036-.028-.005-.014.008-.025-.014-.028-.022-.014-.014-.019v-.061l0-.061-.006-.016-.047-.05-.016-.019-.039-.036-.008-.033-.014-.058-.011-.019-.072-.08-.038-.028-.019-.005-.066-.019-.041-.022-.038-.022-.025-.022-.019-.03-.005-.041,0-.05,0-.077.016-.022.019-.041.008-.05-.011-.083-.017-.025-.019-.047-.014-.044-.019-.05-.014-.014-.008-.036-.033-.052-.039-.036-.016-.022-.025-.063-.036-.047-.011-.03,0-.016-.011-.03-.019-.019-.005-.019v-.069l.008-.025.014-.025.022-.017,0-.011.022-.014.016-.025-.005-.088-.017-.072-.008-.072-.005-.044-.03-.036-.036-.028-.006-.044-.011-.022-.011-.008-.005-.005-.006-.008-.006-.008v-.008l0-.005.005-.022,0-.011-.011-.017.006-.019.006,0v-.022l0-.008.005-.03,0-.011L149,74.29l-.014-.011L149,74.26l-.008-.014-.017-.005,0-.011.022-.022.005-.014-.008-.011-.025-.006,0,0,0-.014v0l.008-.028.008-.017,0-.025-.014-.055-.028-.005-.005-.008,0-.014.036-.033,0-.011-.011-.017,0-.017-.005-.008.016-.014,0-.014-.014-.017-.008-.008.008-.019-.005-.017-.017-.016v-.011l.011-.019.014-.017v-.011l-.008-.011-.022-.016.011-.014.036-.017,0-.011-.006-.011-.022-.022-.008-.005-.006-.017.006-.044.006-.028,0-.008-.019-.022V73.52l.011-.011.022-.005,0-.014-.017-.033.008-.011.017-.008.03-.008.011-.014V73.4L149,73.377l.011-.028,0-.028,0-.005.011-.028.017-.019.033-.025v0l0-.008-.011-.033-.019-.044-.011-.019.006-.044.036-.044.006-.025.019-.014-.008-.028.019-.019.008,0,.017-.052.039-.017-.008-.039.025-.014.011-.033.074-.039.011-.011,0-.025.028-.052.008-.014V72.6l-.019-.025-.03-.019-.08-.03-.011-.008-.011-.022.016-.028V72.42l-.011-.011-.022-.008-.008-.014-.008-.033-.019-.028-.008-.019.008-.016.011-.028-.025-.025,0-.019,0-.022,0-.016-.011-.039-.017-.005-.006-.019,0-.014h0l-.005-.019v-.017l.014-.036.011-.014.016-.005h.019l.033.014.016,0,.011-.008.005-.011-.016-.047-.008-.011-.03-.011-.019-.014,0-.014.006-.017.019-.019.019-.005.033,0,.008-.005.017-.008h0l.011-.014.011-.019,0-.016-.008-.014-.028-.022-.028-.03-.014-.03,0-.033,0-.033,0-.017-.025-.014-.033-.036-.005.008,0,.022-.006.027-.008.008-.017,0-.019-.008-.025-.027-.011-.025-.005-.055,0-.017-.016-.036-.008-.025,0-.019.006-.019.016-.014.027-.014.014-.014.008-.019,0-.019-.006-.033-.03-.058-.006-.017,0-.016.011-.008h.022l.028.011h.014l.017-.014.008-.014.014-.038v-.014l-.014-.017-.017-.011-.022,0-.044,0-.014-.011-.008-.019-.008-.014-.022-.011-.008-.014,0-.011.008-.005.033.005.008-.008.008-.019.011-.019-.025-.061-.014-.019-.05-.014v-.033l.011-.044v-.014l-.038-.03-.036-.014-.017-.005-.005-.005-.033,0-.017.014-.014.022-.006.019-.022.008-.006.008-.047-.005-.033-.019-.016-.011-.019-.025-.025-.017-.017,0-.1-.121-.028-.005-.014-.03.005-.022.041-.028.005-.008.011-.011-.03-.063,0-.017.017-.041,0-.025-.005-.047.008-.074.008-.041-.03-.1.006-.025.019-.039.005-.033-.005-.036.005-.085,0-.041-.008-.036-.014-.03-.036-.052-.022-.041-.011-.047-.006-.058-.011-.019-.019,0-.014.016-.019.028-.019.008-.025-.03-.005-.019.008-.033.028-.039-.019-.066.014-.039-.011-.05,0-.05,0-.019-.011-.044-.017-.041-.022-.036-.011-.041-.006-.041,0-.039-.011-.022-.041-.019h-.011l-.063.011-.016,0-.069,0-.019-.014-.011-.016,0-.069-.008-.025-.005-.019-.017-.03L148,68.814h-.011l-.025.016-.022.055-.022.025H147.9l-.019-.011-.022-.033v-.028l.014-.022.033-.039.011-.03-.022-.041-.019-.011-.016-.011-.025,0-.033.011-.061.006-.028,0-.03-.017-.058-.05h-.03l-.019.005-.006-.028.014-.044,0-.028-.011-.008h0l-.011.006-.058.069-.022.011-.028-.008-.019-.036-.011-.052-.014-.011h-.036l-.022-.014-.014-.017v-.038l.014-.05.022-.047.005,0,.008-.005.006-.028-.011-.052v-.014l0-.022-.011-.022-.008-.03.008-.022.022-.014.005-.008-.005-.033-.019-.041v-.005l-.022-.011-.014-.041.008-.036,0-.03-.03-.022L147.3,67.9l-.022-.027-.061-.088-.008-.011-.074-.1-.011-.022-.047-.066-.047-.069h-.061l-.239,0-.019,0h-.022l-.11,0-.022,0h-.1l-.22-.005h-.121l-.028,0h-.039l-.113,0h-.162v.005l.022.118.008.047.008.055.006.05.008.008.011.05v.036l.008.041.036.176.005.052.008.028.006.022.005.011.008.074.011.069.014.058.033.2,0,.039h0l.014.058,0,.038.008.036.006.019V68.8l.008.036.033.187.011.049v.03l.022.091,0,.061.016.083.025.03.014.006.006.011-.006.014.011.03-.025.014-.014.05-.027.022-.014.019.016.033v.006l0,.033.008.016.033-.008,0,0h.011l.011.011-.008.011-.011.008.008.019,0,.011-.011,0-.016-.005-.006.017H146.1l-.019,0,0,.011.014.017-.022.025v.011l.036.005.017.008.036.055.033.022.022.017.008.011.008.025.014.011.022,0,.063-.016.014.005.039-.014h0l.028-.005.019,0,.014.011.025.052.016-.017-.016-.033,0-.008.006,0,.008-.005v0l.016.036.006.005h.016l.025-.019.033-.025.019,0,.058.03.014.005.019,0h.033l.036.014h.022l.066-.019.008,0h.008l.036.011.025-.011.025,0,.022.005.014.011.014.036.006,0,.014-.019.014-.011h.025l.016.008.017.028.019-.011.011-.005.008.005-.005.022,0,.006.022.005.017.025.025.011.044.005.017.039v.008l0,0-.033,0v.008l.008.011,0,.014-.011.019.005.008.03,0,.008.008.011.017.033,0,.028.022.008.008V70.2l-.008.022.008.03.011.022.022-.019,0,0-.005.036-.005.008-.022.014-.005.016.022.008.052.011.008.011.047.005.033.006v.014l-.006.008.019.019.028.039-.022.014-.005,0v.008l0,0,.041.005.011,0,.006.017.022.008.019,0,0-.017.008-.008.016-.005.006.005h.008l0-.014.019.008.028-.028.025.033-.006.025.033.014.014.03.008.033-.005.017-.069.052-.011.019v.047l-.008.03-.03.039-.008.008,0,.011.005.03.033.044v.019l-.019.016-.041.014-.033.033,0,.028-.011.022.006.033.014.022.014.028.016.036.033.055V71.2l.008.017.022.014.011.022,0,.008-.019.019-.017.019-.028.044v.019l.008.03.008.017,0,.008-.008.011-.017.008-.011.011-.014.022-.006-.008-.017.036-.047.049-.008.017,0,.017.016.016.011.005-.027.044v.027l.016.047-.014.039,0,.041.014.047-.008.022-.025.033-.005.011-.019.019-.03.011-.025.025L147.4,72l-.041.017-.014.014,0,.03.011.016.025.044.03.03.072.033.039.028.011.014.022.025v0l.033.014.022.014.011.025.017.022.005.03.011.041,0,.033.006.011-.022.08-.011.077.008.052-.008.041-.027.025-.041.025-.033.008-.077.03-.028.005-.149.066-.058.028-.036.008-.058,0-.066.014-.044.019-.008,0-.008.014-.019.069-.027.047-.036.036-.008,0h0l-.016.005-.077.028-.044.025-.038.017-.028.008-.066.014-.05.017-.044.033-.063.022-.088.05-.066.039-.025.022-.033.055-.027.033-.044.052-.027.019-.014.008-.041.011-.1.044-.044.014-.017.008-.033.005-.025,0h-.038l-.027-.005-.041-.028-.036-.03-.017-.025L145.7,73.5l-.019-.008-.061-.014-.033-.011h-.044l-.058-.044-.028-.005-.014.008-.017.006-.019.017-.014.025-.022.088-.008.036-.03.036-.028.033-.014.008-.041.049-.008.033,0,.05,0,.011-.014.011-.011.005,0,.033-.008.008-.005.011-.028.036-.047.028-.022.011-.008.014,0,.027.014.033.006.005-.006.014,0,0-.03.008-.027.028-.019.041-.014.022-.014.011h-.019l-.019.028-.011.008-.017.008-.044.052-.008.019-.006.025-.008.025-.017.014-.016.008-.006.017V74.4l-.006.022-.019.016-.006.005-.022.008-.011,0-.019,0-.022,0-.077.052-.055.019-.06.009h0l-.014,0h0l-.033.03-.011.008-.006.08-.011.05,0,.041v.06l-.008.039-.022.036-.022.058-.036.055-.019.03-.019.014h-.011l-.03.03-.011.017-.006.025-.017.008,0,.014h0l-.03.054-.03.036-.011.033-.019.094-.014.061-.014.039-.014.036-.017.022,0,.005-.025.025-.052.044-.027.019-.011.011-.011.005-.025.058-.022.1-.008.033,0,.028,0,.019.016.05v.066l.019.058.025.025.016.033.006.041-.006.05-.036.044-.028.025-.025.022-.005.025-.011.036-.006.063.008.061v.061l-.039.058-.014.033v.05l.014.074-.005.061-.019.058-.025.047-.025.033-.011.017-.044.041-.03.047-.005.017.005.036,0,.036,0,.036-.014.038-.016.017-.044.028-.027.011-.014.022-.019.047-.022.061-.022.011h-.036l-.058.011-.063.033-.027,0-.061,0-.025,0-.019.008-.025.011-.006,0-.019.022-.052.077-.025.033-.03.066-.083.077-.017.041,0,.025.006.027.028.044.014.011.03.019.011.014.005.014,0,.019-.011.028-.014.052-.039.066-.014.014-.052.027-.028.025-.005.011-.008.033.008.019,0,.028-.006.014.014.008.008.016.008.05.008.011.019.005.047.028h.027l.022.019.03.019.03.025.019.033v.016l.005.011-.027.036-.022.052-.036.03-.022.025-.008.025v.025l-.011.058,0,.038-.017.019-.008.019-.006.03.017.058-.006.014-.022.014-.019.022-.008.019,0,.011.014.027,0,.014-.005.016-.011.017.008.011v.014l0,.019.014.025.008.008-.008.03-.019.025-.008.017,0,.047-.022.022-.011.033-.025.033-.014.005-.039-.011-.008.011-.006.005-.039.038-.025.005-.014.008-.016.006-.036-.008-.039.008-.011.008-.025,0-.019,0-.006.008-.049,0-.041-.005-.044.022-.066-.005h0l-.036.014h0l-.03,0H142.3l-.011.014-.083.052-.055.049-.014,0-.028,0-.022.008h-.025l-.014.019,0,0-.044.041-.058.03-.027.027-.017.036-.041.028-.047.014-.074.041-.028.017-.025.008v0l-.03.022.008.022-.005.03,0,.022.025.011.1,0,.016.011.008.011.006.052-.011.036.005.055-.005.072,0,.058.008.017,0,.052,0,.061-.039.039-.008.033,0,.014,0,.008,0,.014-.019.041-.006.019.008.03-.017.044,0,.033.006.011.019.014.008.025,0,.017.014.025,0,.022-.016.019-.006.019.006.033,0,.033-.014.033-.022.033-.008.047.014.025,0,.022v.022l-.011.022-.052.074-.017.039-.019.039-.011.022-.044.063-.041.03-.058.055-.014.005-.03.033V81.5l.027.025.008.008,0,.019-.016.03-.022.052-.006.028,0,.025.017.033.016.019.025.069.008.058v.008l-.025.058-.036.041-.022.019-.036,0-.019-.008-.039-.008-.033,0-.022.008-.017,0-.019.005-.022.014-.022.033-.008.025,0,.063,0,.052-.008.033-.055.039-.008.017-.019.052-.017.019-.008.014-.019.014-.025,0-.039-.011-.036,0-.052.047-.094.072-.039.03-.016.008h-.027l-.03-.019-.033-.008-.08-.028-.033-.005-.091-.028-.036-.005-.016.005-.022.017-.014.019v.014l-.006.022,0,.033-.011.022-.014.017-.011,0-.019.019-.019.025-.014.039h0l-.008.049-.006.039-.014.038-.055.072-.019.039-.022.014-.027.005h-.083l-.017,0-.033.019-.016.022-.011.008h-.036l-.063-.017h-.033l-.028.014-.052.036v0l-.022.014-.033.014-.033,0-.036.006-.019.017-.022.028-.019.074-.019.107,0,.039.005.022.008.033.028.066.011.038.027.121.025.184.006.127,0,.055-.005.005-.036.025-.022.061-.033.039-.022.03-.039.055-.011.036-.005.025.011.044.014.03.008.061-.006.038,0,.036.017.036.006.033,0,.008.008.011-.008.039-.03.063-.039.033-.008.047-.017.019-.014.008-.019.017-.014.014-.019.022-.022.05-.011.014-.03.058-.039.03-.03.033-.063.044-.058.061-.008.019-.036.08-.033.033-.019.03,0,.039-.019.016,0,.052-.011.022-.033.028-.017.03-.005.036-.011.058v.055l-.005.039-.014.028-.017.011-.019.022-.011.022.017.041.008.121,0,.088.011.083.011.047.025.05-.091.052h-.019l-.022.014-.028.014-.072.005-.036.011-.03.022-.052.061-.039.058-.069.069-.011.011-.011.011-.011.025-.016.005-.132.146-.044.058-.025.036-.014.033-.008.019-.014.016-.019.083-.028.077-.008.066.005.069.006.055.011.014v.008l.005.107.022.091.03.088.052.1.014.011.006.005.005.028-.005.022-.011.019-.017.019-.025.011-.011.011-.074.005-.116-.025h-.033l-.033.025h-.008l-.011,0-.028-.011-.019.011h-.044l-.011.014v.074l-.028,0-.033.014-.033.025-.017.036-.03.033-.03.011-.005,0v.022h-.047l-.036.008-.022.014-.019.033,0,.063-.008.022-.011.08-.017.03-.047.008-.036.008-.033.019-.03.044-.011.05-.028.03-.005.022,0,.027.052,0v0l.014.006.011.017.011.041,0,.025,0,.03.047.005v.027l.011.022-.055.022-.027.044-.005.016.005.017.016.016.028.05,0,.039-.006.019-.008,0-.041.022-.03.005-.025.03,0,.022-.016.041.022.041-.016.028.005.025,0,.017-.014.019-.014,0-.025.017,0,.017-.025.025,0,0-.022.039.008.03-.014.03-.033,0-.019.019-.025,0-.022.022-.025,0-.027-.011-.044-.036-.033.03-.036.008h-.03l-.011.022-.014.011.025.05-.011.093-.022.025.019.03-.094,0-.044.011-.041.008-.044-.008-.022.011-.008.036.006.022-.006.014,0,0-.074-.008-.022-.019-.017,0-.033-.033-.055-.036-.008-.008-.03-.011h-.033l-.036.039h-.03l-.025.017-.011-.008-.025-.03-.047-.017h-.041l-.03,0-.014,0-.03-.014-.006-.011,0,0-.039-.038-.03-.014-.03,0-.03.022-.019.041-.017.014-.014,0h-.025l-.036,0v0l-.036-.008-.008-.03.006-.1v-.226l.016-.1,0-.017-.03-.03-.028-.027-.033-.047-.017-.011h-.014l-.014.011-.019-.005-.044-.008-.011-.011-.016,0h-.006l-.033.039-.066.05-.028.028-.014,0-.011,0h-.025l-.008-.011h-.011l-.008.008v0l0,0-.069-.022h-.005l-.008.022-.094-.072-.006-.011-.019-.1.008-.044,0-.027-.017-.028-.014,0-.006,0,0,0-.006.028-.014,0-.008-.008-.014-.016-.041-.094-.066-.044-.017.011h-.011l-.019-.017H134.9l-.016-.025-.03-.028v-.019l-.025-.041v-.008l.008-.011-.014-.022.005-.019.016-.011,0-.03.074-.182-.005-.017-.011-.014-.066-.033-.019,0-.019-.017-.022-.03-.006,0-.022.011h-.011L134.722,88l-.011-.006-.019,0-.016.014,0,.022-.014,0L134.64,88l-.036-.022-.011-.022-.028-.044-.014,0-.041,0-.041-.033-.022-.038-.017-.017-.036,0h-.005l-.014-.027V87.75l-.008-.011-.066-.033-.008.019-.014,0-.061-.019H134.2l-.1-.088.025-.074,0-.028-.022-.049V87.4l-.025-.025-.028-.011-.014-.022-.025-.011v0l-.008.011-.011.072-.006.069-.005.072.005.022,0,.011h-.011l0,.072-.008.044.008.041-.03.138,0,.011,0,.041-.008.019-.019.022-.006.025-.005.074-.03.025-.016.028-.047.011-.028.011-.016.008-.014.014-.005.036-.008,0h-.025l-.052-.052-.118.011-.016,0-.116.005h-.019l-.063.011h-.008l-.019,0h-.036l-.028.008-.248.022-.179.017-.014-.011-.129-.154,0-.022.016,0,0-.025.017-.052-.008-.011,0-.052h0l-.011,0-.011-.017v-.014l-.008-.014.005-.019.022-.025,0-.011,0,0-.027,0-.005,0,0-.017.006-.028-.025-.014H132.6l-.061.058-.006.017-.036.03-.025.027-.091.077-.033.025-.011.017-.014,0-.055.055-.047.036-.066.052-.036.061-.03.005-.011.011-.091.077-.055.088-.006.011-.033.022-.074.074-.014.005-.058.061-.033.047-.038.041-.036-.014,0,0-.033-.022-.121-.005-.019,0-.016-.019-.014,0,0,.016-.008,0-.006-.005-.019,0-.005-.011-.017-.005-.022-.017-.017.03,0,.011-.011.039-.019.036.019.017,0,.011-.005.014-.03.033-.011.019,0,.061-.017.039.017.036-.017.014.019.06-.019.014.006.014,0,.03-.006.005-.019,0-.005.011-.008.028-.014.039v.022l-.036.066-.022.1,0,.005-.019.03,0,.008-.025.116-.005.025-.008.011H131.1l-.014.011-.017,0-.011-.016h-.008l-.014.014-.022-.005-.006,0-.033.017-.008-.006-.011-.028-.017-.011-.019-.028-.005.022-.022,0h-.016l-.017.014-.033-.019-.03,0-.022-.006-.016-.011h-.014l-.008.008-.014.044-.022.025,0,.028-.008.025.008.014,0,.041-.005.008-.006.005-.061.036-.08.047-.05.014-.047,0-.047-.008-.094-.019-.019.006-.014.044,0,.008,0,.017-.011.027.008.022,0,.019-.019.044-.008.047-.014.005,0,.005v0l0,.03v.025l-.044.154-.033-.006-.1-.055-.022-.016-.027,0-.036-.017-.047-.025h-.008l-.019.019-.005.066-.019.014.008.019.006.022-.006.022,0,.017-.011.028-.014.008v0l0,.005-.025,0,0,.008.011.011,0,.008-.008.011-.019,0-.033.036-.05.1-.019.028-.014.033-.069.1-.036.008-.019,0-.025.011-.041.005-.052.022-.091.066-.025.03-.038.033-.028.072-.025.066-.055.055-.1.085-.011,0-.1.091-.022.016-.077.074-.022.014-.124.113-.017.022-.03.017-.027.017-.027.016-.121.1-.061.019-.03.03-.058.094-.094.05-.033.058-.03.014-.006.008.022.047.019.019.041.011.008.011,0,.014,0,.027-.011.017-.036.027-.006.008,0,.017.025.03v.014l-.025.039-.08.1-.011,0-.019-.03-.008.017.006.025.006.041.008.019,0,0,.03.025.011.028.055.025.022.052.019.03.036.036.033.022.033.033,0,0,.022.03.014.039,0,.058-.008.025-.033.036-.014.05-.049.066-.025.041-.008.025-.011.036-.006.052-.011.019-.047.05-.014.025-.006.033.016.052v.03l-.011.028v.028l.011.039-.019.022-.033.138-.019.069-.025.091.011.094,0,.063V93.8l.006.055-.006.08v.03l-.036.044-.019.044-.022.028-.005.014-.008.019-.014.036-.033.044-.03.022-.072.019-.006.008,0,.019,0,.019-.022.011-.017.019-.033.025-.017.052-.016.016-.008.025.005.028-.005.011-.028.011.005.025,0,.011h0l-.014.006-.052.052,0,.011.005.008.033,0,.017.022-.006.011-.014,0-.011.014h-.014l-.011.008,0,.022-.039.028-.011.016.011.019-.008.011-.033.025-.022,0-.005.019v.014l.017.039-.006.025-.011.016-.072.008-.025.017-.025.038-.019.011-.011.016,0,.025,0,.027.017.022.047.041.017.03,0,.052-.05.03-.055.039-.028.011h-.03l-.028-.014-.017-.03-.019-.008-.022.005-.033.036,0,0-.019.036-.028.091-.017.052.006.083.039-.006.011-.005.005-.006.008-.011.017.008v.014l-.006.025.008.025.016.028.028.033.006.019-.014,0-.019,0,0,.005.005.008-.005.014-.011,0-.005.006-.011.033,0,.008-.016.014-.017.008-.049,0-.022-.008,0,.033-.011.039-.019.027-.019.033-.011.044.044.061.008.022.011,0,.025.033,0,.011.006.011-.008.025.005.014h-.022l0,.011-.017-.011-.041,0-.019,0v.014l.011.025.014.138.014.022.022.017.011,0,.025,0,.011.008.055,0,.033.022.006.014.033.005.036,0,.061-.014.028.005.055-.005.05.011h.083l.05.014.008,0h.028l.03-.011.028-.014.044-.058,0-.011-.011-.011-.025.008v-.008l.008-.008-.008-.03,0-.014-.047-.05-.019,0-.022-.008h-.011l0-.044-.011-.005-.016-.019.005-.008-.014-.052,0-.033-.008-.091-.022-.113-.019-.036-.044-.055-.008-.014.008-.055-.008-.025.008-.008,0-.025.025.008.008.066.014.039.019.017h.019l0,.016,0,.005.039.019.005.014.019.03-.008.016.039.05.014.033.036.028-.025,0v.005l.014.074.014.036,0,.008-.011.006.019.011.039.036.039.019.028,0,.014.008.017.019.014.008.055.072.033-.006.011-.011.022,0,.019-.019.016-.008.011-.014-.005-.017.039-.019.044,0,.019.016,0,.017.011-.011h.019l.006.008-.017,0v.011l.014.03.044.022.014.014.014,0,.022-.022.044.036.019.036.036.014.005,0,.028.033-.044.061h-.014l0,.014.011.03.022.016.005.014-.025.005-.019.011-.025.025v.036l.006.019.011.008-.005.008-.008.014,0,.03.025.044.008.055,0,.041,0,.019.019.044.011.041.028.041.006.022-.008.047-.008.033,0,.019.011.011.017.005.03.055.022.028.008.005.03.019.047.014.028.014.019.014.022.028.028.028.014.044.022.022v.005l.006.017-.006.011.011.022,0,.016-.014.025,0,.027-.014.03-.008.1.011.022-.011.019-.011.025-.017.011-.005.016,0,.006.025.005.022.017.03.036.038.016V97.7l.022.014.014-.011h.011l.022.022.083.033.019.011.028.014.091.063.025.03.027.019.022-.011,0,.014.011.011.014-.005.022-.022.019,0h.025l.017.022.036,0h.016l.008-.008.022,0,.016-.005.052,0,.038.008.006.011-.008.022.016.019v.008l-.006.008-.014,0-.005.005.025.036,0,.014-.014.028.005.017-.008.017V98.1l.011.017,0,.005h.008l.008-.005.006-.03h.008l.008.008.027-.005.011.022v.03l.039.006.011-.014h.011l.006-.008-.008-.014,0-.014.036-.022.016,0,.008-.014-.014-.022.006-.008h.022l.019.014h.006l.005,0,0-.005.014.011.074.113.036.033.116.08.066.03.025.008.066.014h.039l.038-.005.069-.028.088-.044,0-.005-.044-.044-.014-.036.005-.008-.016,0-.006-.025.006.006.014-.017,0-.016.011-.044-.008-.025-.008,0,0-.014-.019-.033.008-.008.019,0,.006.005.019,0,.011.011.022.022.019.019,0,.014.055.047h0l.058-.014.019,0,.014.008.019-.011.014-.033-.025-.074v-.03l-.017-.044-.011-.011.022-.033.016-.006.019,0,.006.016.052.019.025.005.014,0,.017.014.041.014.03,0,.036-.016.036-.025.033-.008.006-.006-.017-.017.011-.008.039.005.025-.039.011-.008.028-.033,0-.011,0-.011.049.006.033-.019.047-.008v-.011l-.017-.025-.008-.028,0-.019.019-.028.022-.072.006,0,.006.022-.019.058,0,.008h.019l.006,0-.014.022.006.006.055-.025,0,.008-.019.033,0,.019-.022.011-.049.052-.03.052-.011.005-.011.014-.006.017v0l.006.039-.019.017-.025-.019h-.011l-.049.077-.025.061,0,.022-.011.008,0-.005-.017,0-.006.017.014.055.011.019.008.008.014.006.008-.006h.016l.022-.008.019.008h.091l.011.008.014.014.011.028-.006.03-.014.008-.028-.008-.014,0-.006.014.006.017.022.027.011.005.011.014.022.011,0,.008,0,.011.044.044.019.011-.016.036-.038-.006-.019.006-.019.011-.008.025,0,.028,0,.017.008.017-.038.022L131,98.533l-.033-.052-.028.008,0-.011.006-.011-.011-.017-.036-.014,0-.017-.044-.017-.022-.025-.017,0-.019.017-.014,0-.017.044-.025.047v0l.005.041-.008.047-.019.014-.017.019-.005.019-.017.011-.027-.028-.014-.005-.011,0v-.011l-.041-.033-.008-.005-.014,0,0,.011.1.124.049.085.077.127.08.143.011.077.005.006,0-.019v-.005l0-.028.008-.008,0,.014v.055l.022.041-.016,0V99.2l.038.005.006,0,0,0,0,.008h-.033l-.017-.005-.017.019,0-.041h-.005l-.008.061-.006.033,0,.019.022.006.011.014.008.017-.011.011-.005.033-.03.044-.005-.017h-.005l-.006.011v.011l.006.005.017.011.005-.005.03.03.019.019h.022l.094.083.044.03.041.038.017.011.011,0,.038.044.039.028,0,0,.116.11.066.08.058.058.044.055.005.006.058.061.039.055.017.028.033.03.028.038.019.025.025.063.008.047.008.014-.008.019.019.058.025.03.028.055.016.022.022.019.014.025-.036-.019,0,.008.017.03.049.135.066.118.022.061.019.052,0,.017-.017,0-.014.011.005.044,0,.019-.016.019-.006.033,0,.022-.008.025-.011.011-.014.033-.063.063-.011.005-.044.058-.014.028-.011.061-.008.014,0,.025-.011.014v.019l-.014.028.008.061-.008.047,0,.019-.014,0-.008,0-.019.069-.011.069.014.063.022.066-.005.011-.011.008-.008.027-.022.039-.008.027,0,.047-.008.063-.049.061v.019l.005.025-.008.03-.03.052-.011.085-.005.011-.008.014,0,.094-.011.016-.005.039-.014.041-.005.044-.022.033-.005.091.008.074-.019.044.025.1-.008.03.014.066v.008l-.005.022-.025.033,0,.019.017.1v.061l-.008.041.006.028-.011.017.022.027.017.033,0,.055-.008.044,0,.028.044.113.014.036.011,0,.052.025.014.011.036.011.008.008.014.028.022,0,.017.014.011.016,0,.052.014.014.017,0,.03-.03.014,0,.03.019.019.005.017.005.061.011.063.038.025.005.019-.008.014.006.083.025.017.011.036.014.019-.014.011-.036.011-.017.006.025.022.028.036.008h.1l.025-.008h.017l.011.005.011.008.017.006.016-.008.041-.039.019-.005.014,0,.025,0,.008.008.008.022.028.025.063-.041.008,0,.014,0h.305l.047,0,.091.005.143-.005h.011l.047,0h.44l.259,0,.1,0h.03l.014,0h.869l.212-.005v.005h.319v-.005l.239,0h.124l.055-.039.028,0,.041.022.083.022h.435l-.019-.019-.005-.017.005-.019.017-.028,0-.011-.011-.008.005-.008.006-.014-.006-.025.008-.011-.019-.008,0-.008.025-.025.008-.03.014-.017.019-.008.025-.033v-.011l-.011,0-.005-.014.019-.019,0-.008-.008,0-.005-.019-.025-.011,0-.008.019-.011.016-.025.025,0,.028-.017.074.022.039,0,.027-.011,0-.008.022.008.019.022h.022l.014-.011,0-.011-.016-.014.022,0,.055,0,.041.028.03-.008.017-.014.016-.005.028.005.025-.005.022.008.014.008h.014l.011-.008.019.008.011,0,.014-.011.017-.025.033,0,.036-.008.036,0,.047.019.017.017.017,0,.049-.027.041.005.016,0,.008-.005.019-.022.041-.022.014.014h.017l.052-.008.019-.008h.016l.022.041.017.011.036.008.03.03.011,0,.022-.011h.014l0,.011-.005.016.014.025.005,0,0,.027.008,0,.025-.008.044,0,.028.011.005-.019h.014l.011-.011.011,0,.017.011h.047l.028.005v-.019l.008-.008.016,0,.019.008.016.016.025-.011h.022v.025h.033l.011-.033h0l.033,0,.03.014.025-.019h.014l.017.014.022,0,.014,0,.008,0,.008-.022h.016l.025.022h.011l.006-.005.025,0,.011-.011h.017l.008.005.036,0,.019-.014.011.008.027-.014.022.019.014,0,.03-.006.008.008.025,0,.005-.008.006-.019.022.011.033.005.03.014h.016l.011,0,.008-.019h.011l.041.008.028,0,.016.017.014,0,.011-.005.036.008h.038l.044-.039.014,0,.047.028.03.033.019,0,.022-.008.025-.022h.022l.036.008.055.008.019-.011.019.008.022.028.008.028.011.008.055.027.041-.008.008-.014.008,0,.03.005.039-.005.008-.005.011-.011.019-.047.03,0h.052l.036,0,.011,0,.08.022.1.008.027.014.113.022.1.011.047,0,.027,0,.058-.022h.039l.08.022.055-.005.107-.044.033.011,0,.008v.014l.014.014.039.005.027-.005h.011l.008.014.038.022.11.019.041-.006.014-.011.047.006.074.047.014,0,.011-.008.008.005.047,0,.011.014.014.005h.025l.091-.022.052-.03.006-.008v-.014l0-.008,0-.005.019.008.022,0,.025-.008.008-.014v-.014l.008,0,.019.017,0,.036.006.008h.055l.017.011h.019l.011.025h.014l.017-.006.016.006.008-.006.006-.036.006-.008.011-.005.019.014.014.019h.028l.072-.028-.019-.014V103.8l.014-.008.052,0,.036.033.019,0,.044-.005.025.011.044-.019.03-.008.017.008.008-.008.022.005.025,0,.019,0,.014.016.019,0,.008-.014h.008l.006.033.014.005.011-.005.019,0,.014-.008h.019l.017-.025.017,0,.019-.011h.008l.011.017.011.008.008.016,0-.005.006-.011h.008l.022-.014.006-.022h.016l.005-.008.033.014-.008-.022.008-.008-.011-.027.036-.017.127-.036.052.019.008,0,.022-.014h.022l.011.011v.016l0,0-.019-.008h-.011l0,.008.017.011.005.014.011,0,.008-.011h.017l0,.017.008.011h.017l.005-.008.011,0,.011.011h.011l.008-.008.025-.006.008-.019.019.005.022-.019h.014l.017.022.028.019-.006.019.008.014.022,0,.006.005v.019h.008l.019-.022.014,0,.017.055.005.008.025.011,0,.028.022.03v.008l-.008.017-.011.005-.014.022-.006.005-.016.005,0,.011.038.019-.005.041.107,0,.069-.006.168.006.011.005.066,0,.184,0,.055-.006.107.006h.074l.264,0h0l.011-.005.085.005h.061l.088,0h.487l.05-.005.05.005h.377l.011.006h.058l.052-.006h.228l.124,0,.149.005.011,0,.022,0,.206,0,.036,0,.014-.022.03-.022h.022l.022-.011h.061l.03-.005.085.019.055.006.036-.008.077.005v0l.038.006.05.03.014.017.017.025.022.019h.022l.022-.011h.017l.154-.061.116-.036.011-.008.033-.017.025-.005.036-.05.036.028.019,0,.014-.014.011-.014.008,0,.011.005.017.028.033.011.019.005.019.019.014.036.011.019.036.063.041,0,.016.014.006.014-.011.03.017.03.016.006.08-.008.022,0,.014.005.028.03.014.036.041,0,.027.014h.011l0-.014-.017-.022v-.014l.006-.011h.019l.085.063.005.008-.005.019h-.038l-.006.014.008.011.019,0,.039-.028h.036l.011.008.006.022,0,.019-.022.041,0,.008.014.014h.016l.05-.036.011,0,.041.044.017,0,.041-.016.027-.028,0-.005.016-.027.03-.008.055.011.008-.008v-.014l-.025-.047.006-.014.033-.017.016.006.011.017,0,.072.008.033.025.016h0l.08.022.008.017v.022l-.014.039-.014.025-.036.03,0,.008.011.017.047.039.028.014h.025l.033-.008.047,0,.047-.014.017-.014.022-.058.025-.022.041.039.033.028.05.022.033.025,0,.05.025.025.014,0,.017-.014.049-.072.019,0v0l.011.011,0,.008-.005.03,0,.017h.025l.022.008.063,0,.017-.03.005-.039.025-.041h.019l.025.014.019,0,.019-.019.005-.019.005-.055.008-.008.033-.006.03.069.006.005.005.008.014,0,.033-.041.028-.025.028-.005h.033l.03.014.063.005.03.016v.017l-.027.039.055.008.016.017.011.019.011.011.033.005.033.028.047.05.011.039v.022l-.011.033.005.019.019.011h.025l.025-.008.027-.022,0,.022-.005.014v0l.014.033.022.025.014,0,.03-.019.1-.055.014-.005.052-.008.047-.044.033-.016.061-.019.094-.025.027-.019h.022l.072.047.036.025.017,0,.027-.025.022,0,.022.011.044.036.019,0,.044-.019h.03l.052.03.061.016.094.019.055.011.055-.014.118.044.019.025.017,0,.033-.014.025,0,.05.022.014.014,0,0,.017.03.044.041.011.022.011.036.044.044.072.025.019.011.03.038.016.011.066,0,.017.019.033.1-.008.028h.019l.039-.033.044,0,.006.005,0,.025.008.014.017.005.047,0,.083.039.1,0h.022l.077-.014h.022l.022.008.008.025-.005.022-.011.019-.03.052-.011.03v.019l.025.019.005.017-.014.047,0,.028.022.063.011.011.05,0h.014l.022.014h.025l.019-.03.028-.044.016-.036.036-.017.014,0,.019,0,.033-.011.019,0,.022,0,.03.033.03.011.014-.022.011-.039,0-.014-.025-.044-.017-.025,0-.03v-.033l.014-.022.011-.039-.016-.066-.006-.055-.025-.036-.019-.022-.008-.033-.03-.1-.008-.041,0-.022.008-.03v-.014l-.006-.008-.011,0-.041.011L152.5,105l-.008-.011-.005-.069,0-.022-.011-.025-.006-.039,0-.022-.033-.028-.03-.036-.019-.017v-.011l.008-.025-.008-.036v-.036l.022-.036.036-.03.017-.014.022-.047v-.025l-.022-.019-.028-.011-.014-.016v-.014l.016-.016.041-.019.017-.022,0-.005,0-.019,0-.033-.008-.036-.014-.011-.008-.017,0-.011v-.063l.008-.05.005-.094.006-.03.033-.022h.016l.044,0,.03.005.03.005.011.011.016.052.006.006h.019l.019-.014.022-.033.011-.008.014-.008.044-.014.028-.033h0Z" transform="translate(-127.04 -67.502)" fill="#023f5f"/>
  </g>
</svg>
