<svg xmlns="http://www.w3.org/2000/svg" width="24.874" height="26.686" viewBox="0 0 24.874 26.686">
  <path id="Elfenbeinkueste" d="M172.994,477.844l1.546.146,12.289-3.478,4.409.494.639-2.612c-.133-2.09-1.907-4.228.492-6.243.223-1.524.1-3.182,1.741-4.155l-.561-5.139c-.676.015-.958-.687-1.312-1.295-.787-1.353-3.426-1.194-5.864.471-1.161-.821-2.514-1.387-2.968-3.15a3.679,3.679,0,0,0-3.947.619l.19-1.758c-.255-.668-1.173-.476-2.252-.074-.272.031-.081.458.224.982a6.75,6.75,0,0,1-1.186.247,2.148,2.148,0,0,1-1.112.79c-1.105-1.936-1.746-1.572-3.059-.508a4.047,4.047,0,0,0-.928,2.017c-.207.868.164,1.705,1.111,1.584l-.088,1.169c.675.3.53.422-.1,1.084-.284.3.8,1.667.668,1.99l-2.075-.413c-.055.327-.128.8-.158,1.159l.976.418-.763,2.03c.1.159-.922.056-1.173.091l.015,1.271c1.06.285.481,2.769-.514,3.173l1.459.916c.321-.252,1.223-.032,1.808,1.565,0,0,1.455.914,1.423,2.066-.025.913-.642,1.059-.809,1.767l-.123,2.776Z" transform="translate(-169.236 -451.304)" fill="#023f5f"/>
</svg>
