<svg xmlns="http://www.w3.org/2000/svg" width="27.247" height="22.313" viewBox="0 0 27.247 22.313">
  <path id="Union_35" data-name="Union 35" d="M12892.871-2392.475l4.1-7.86,12.188-.139.094,9.13-13.648.657Zm-8.294-14.271a2.521,2.521,0,0,0-1.2-.327c-.372-.165-.9-.023-1.144-.425a1.609,1.609,0,0,1-.116-1.442.681.681,0,0,1,.787-.638c.311.081.965.126.8-.379-.058-.347.376-.408.425-.7.113-.437-.065-.946.243-1.332a4.33,4.33,0,0,0,.551-.807.431.431,0,0,1,.731,0,4.644,4.644,0,0,0,1,.029,5.516,5.516,0,0,1,.768,0l.017.006.02.007c.271.275.589.654.446,1.069-.155.492-.6.807-.864,1.231-.317.444-.506.959-.781,1.429-.376.2-.4.615-.379.975-.081.4-.548.531-.645.91-.069.209-.253.453-.474.453A.338.338,0,0,1,12884.577-2406.747Z" transform="translate(-12882.001 2413)" fill="#023f5f"/>
</svg>
