<svg xmlns="http://www.w3.org/2000/svg" width="26.318" height="29.887" viewBox="0 0 26.318 29.887">
  <path id="Kenia" d="M904.919,577.151a2.138,2.138,0,0,1-1.764,1.261,2.7,2.7,0,0,1-1.888,1.977c-1.231,2.224-2.167,4.779-3.705,6.658l-4.3-2.882-.676-2.506-13.1-8.229,4.313-6.594.092-3.695L882.4,561.92c-.184-1.426-.518-2.715-1.691-3.234l1.525-1.333,4.264-.193,2.653.227a13.19,13.19,0,0,1,3.8,2.492l4.83.726a3.2,3.2,0,0,0,2.024-1.733c1.166-.168,2.4-1.178,3.917.262a4.976,4.976,0,0,0,2.074-.013,42.6,42.6,0,0,1-2.789,3.8l.08,11.984,1.83,2.244Z" transform="translate(-879.48 -557.16)" fill="#023f5f"/>
</svg>
