<svg xmlns="http://www.w3.org/2000/svg" width="29.047" height="26.977" viewBox="0 0 29.047 26.977">
  <path id="Namibia" d="M509.189,920.887c.094,1.226.208,2.445,1.333,3.311l4.645,8.272.118,3.8.829,1.757c.047.684-.206,1.368.215,2.052l.577,3.231,2.523,2.809c1.567-1.683,2.137-.324,2.53.754a10.778,10.778,0,0,1,2.877-.013,5.563,5.563,0,0,1,1.616-1.111l.369-14.418,2.133.069.306-8.119,5.208-.46.4,1.089c.375-.412.888-1.17,1.654-1.2.692-.031,1.031-.48,1.713-.843l-.5-.726-3.354.558-3.744.871-6.06-.809-1.015-.853-9.544.11c-.456-.6-2.182-1.978-3.431-.357-.422-.5-.932.127-1.4.232Z" transform="translate(-509.189 -919.893)" fill="#023f5f"/>
</svg>
