<svg xmlns="http://www.w3.org/2000/svg" width="19.403" height="29.657" viewBox="0 0 19.403 29.657">
  <path id="Tschad" d="M557.757,250.729l-14.38-7.082-1.9.576a23.4,23.4,0,0,1,.055,2.685,2.284,2.284,0,0,0,1.7,2.059L542.8,250l-.613,5.556-3,3.3a1.1,1.1,0,0,0-.137.562.642.642,0,0,1-.347.365c-.21.13-.106.35-.13.513-.175,1.171,2.273,2.9,2.273,2.9.126.529.312,1,.406,1.557.1.6-.194,1.328-.109,1.85.123.757.963.833.848,1.989l-1.927-.177c-.559,1.117-.168,1.844,1.206,2.17l.907,2.708c1.457-.333,2.483-.156,4.387-1.016l1.732-.172c.319-.545,1-.835.764-1.774l2.4-.262c.187-.175.277-.447.582-.5.47-.015.607-.32.733-.636.219-.519.771-.7,1.186-1.028.075-1.711,1.368-1.221,2.157-1.545l-.094-.594a3.813,3.813,0,0,1-.981-2.615l-.841.158-.019-.761a1.993,1.993,0,0,0,.376-1.4l.392-.184-.1-.989,1.158-1.48-.036-.725,2-.1-.2-6.949Z" transform="translate(-538.558 -243.647)" fill="#023f5f"/>
</svg>
