<svg xmlns="http://www.w3.org/2000/svg" width="26.501" height="23.298" viewBox="0 0 26.501 23.298">
  <path id="Eritrea" d="M925.7,338.087c.742.508,1.485.444,2.227,1.607l1.972-.395.384-.618.325-.087.437.814a2.256,2.256,0,0,1,2.526-.051c.386.3.953-.119,1.366-.272a4.119,4.119,0,0,0,2.366,1.282,61.065,61.065,0,0,1,7.216,7.165l2.344-1.634a2.271,2.271,0,0,0-2.374-1.753,1.938,1.938,0,0,0-1.394-1.747c-.215-.865-.958-.848-1.544-1.094-.494-1.375-1.7-2.128-2.686-3.07-1.114.262-1.629-.476-2.156-1.193l-.847-.165-.606.372a3.313,3.313,0,0,1-.983-1.957l-.908-.242.231,1.258c-.549.336-.85-.571-1.136-1.549l-1.849-2.684c-1.206-5.618-2.257-6.307-3.335-7.841-.3.7-.349,1.548-.837,1.93l-2.72,1.416a1.936,1.936,0,0,1-1.843.982,51.145,51.145,0,0,0-1.509,11.948l2.1,0,.2-.678.968.054.8,1.264,1.268-3.059Z" transform="translate(-920.36 -324.234)" fill="#023f5f"/>
</svg>
