<svg xmlns="http://www.w3.org/2000/svg" width="33.212" height="25.533" viewBox="0 0 33.212 25.533">
  <path id="Aethopien" d="M900.752,396.331l-6.341,7.236-2.477-.045a9.242,9.242,0,0,0-2.111,1.37,9.436,9.436,0,0,1-2.224,1.14c-.505,0-1.118.186-1.472-.064-.829-.8-1.778-.41-2.717-.117a2.214,2.214,0,0,1-1.439,1.205l-3.389-.527a11.423,11.423,0,0,0-2.662-1.737l-1.883-.13v-1.531l-1.481-.542-1.071-2.445-1.536-1.229c.286-.459-.466-.838-.848-1.245a2.208,2.208,0,0,1-1.56-.269l.458-.55-.028-.708,1.35.024c.295-.185.621-.256.837-.731l-.039-3.967.642-1.01.675.025.308-1.693c.813-1,1.1-2.221,2.441-3l.352-2.935,1.074-.031.149-.349.521.009.447.742.643-1.706c.425.273.98.284,1.229.885l1.084-.212.183-.347.194-.042.262.461a1.121,1.121,0,0,1,1.322-.065c.16.068.346.1.756-.135.434.235.7.713,1.313.69a34.319,34.319,0,0,1,3.924,3.91c-.107.1-.156.485-.235,1.352l-.514.922c-.414.68.087,1.28.876,1l.692-.266.7.284c-.839.967,1.158,2.652,2.959,4.334l6.5,2.077,2.141-.037Z" transform="translate(-867.541 -381.524)" fill="#023f5f"/>
</svg>
