<?xml version="1.0" encoding="iso-8859-1"?>
<!-- Generator: Adobe Illustrator 18.1.1, SVG Export Plug-In . SVG Version: 6.00 Build 0)  -->
<svg xmlns="http://www.w3.org/2000/svg" xmlns:xlink="http://www.w3.org/1999/xlink" version="1.1" id="Capa_1" x="0px" y="0px" viewBox="0 0 517.574 517.574" style="enable-background:new 0 0 517.574 517.574;" xml:space="preserve" width="512px" height="512px">
<g>
	<g>
		<path d="M510.4,216.354c-4.781-4.782-10.562-7.173-17.332-7.173h-86.66V12.553    c0-3.586-1.195-6.574-3.586-8.965c-2.393-2.391-5.18-3.586-8.367-3.586L123.117,0.003c-3.188,0-5.977,1.195-8.367,3.586    c-2.39,2.391-3.586,5.379-3.586,8.965v196.628h-86.66c-6.773,0-12.551,2.392-17.332,7.173C2.391,221.135,0,227.113,0,234.285    v196.628c0,7.172,2.49,13.348,7.471,18.527c4.981,5.179,10.658,7.172,17.033,5.977c7.172-1.594,13.945,0.797,20.32,7.172    s11.256,13.646,14.643,21.814s7.271,14.643,11.654,19.424c4.383,4.781,8.566,5.18,12.551,1.195v-49.605h27.492v49.605    c0,3.188,1.195,6.073,3.586,8.666c2.391,2.59,5.18,3.885,8.367,3.885h271.336c3.188,0,5.977-1.295,8.367-3.885    c2.39-2.593,3.586-5.479,3.586-8.666v-49.605h28.688v49.605c7.175-0.797,13.148-3.984,17.933-9.563    c4.78-5.578,8.168-11.455,10.16-17.631c1.989-6.176,5.479-11.555,10.459-16.137c4.979-4.582,11.452-6.674,19.424-6.275    c6.375,0.797,12.053-1.295,17.033-6.273c4.979-4.979,7.471-11.059,7.471-18.229v-196.63    C517.572,227.111,515.18,221.136,510.4,216.354z M378.316,487.69H139.254v-83.672h239.063v83.672H378.316z M378.316,272.534    H139.254V33.472h239.063v239.062H378.316z M471.85,301.521c-4.186,4.183-9.267,6.272-15.24,6.272    c-5.979,0-11.06-2.092-15.24-6.272c-4.183-4.186-6.275-9.267-6.275-15.24c0-5.979,2.095-11.06,6.275-15.24    s9.264-6.275,15.24-6.275c5.976,0,11.057,2.095,15.24,6.275c4.183,4.183,6.272,9.264,6.272,15.24    C478.123,292.256,476.031,297.337,471.85,301.521z" fill="#1CAC77"/>
	</g>
</g>
<g>
</g>
<g>
</g>
<g>
</g>
<g>
</g>
<g>
</g>
<g>
</g>
<g>
</g>
<g>
</g>
<g>
</g>
<g>
</g>
<g>
</g>
<g>
</g>
<g>
</g>
<g>
</g>
<g>
</g>
</svg>
