<?xml version="1.0" encoding="utf-8"?>
<!-- Generator: Adobe Illustrator 23.1.1, SVG Export Plug-In . SVG Version: 6.00 Build 0)  -->
<svg version="1.1" id="Calque_1" xmlns="http://www.w3.org/2000/svg" xmlns:xlink="http://www.w3.org/1999/xlink" x="0px" y="0px"
	 viewBox="0 0 28.1 28.1" style="enable-background:new 0 0 28.1 28.1;" xml:space="preserve">
<style type="text/css">
	.st0{fill:#023F5F;}
</style>
<path id="help-circle" class="st0" d="M18.4,13l-1.3,1.3c-1.2,1-1.8,2.5-1.6,4h-2.8v-0.7c0-1.5,0.6-2.9,1.6-4l1.7-1.8
	c0.5-0.5,0.8-1.2,0.8-2c0-1.6-1.3-2.8-2.9-2.8c-1.5,0-2.7,1.2-2.8,2.8H8.4c0-3.1,2.5-5.6,5.6-5.6s5.6,2.5,5.6,5.6
	C19.7,11,19.2,12.2,18.4,13 M15.5,23.9h-2.8v-2.8h2.8 M14.1,0C6.3,0,0,6.3,0,14.1c0,7.8,6.3,14.1,14.1,14.1s14.1-6.3,14.1-14.1
	c0,0,0,0,0,0C28.1,6.3,21.8,0,14.1,0z"/>
</svg>
