<?xml version="1.0" encoding="iso-8859-1"?>
<!-- Generator: Adobe Illustrator 16.0.0, SVG Export Plug-In . SVG Version: 6.00 Build 0)  -->
<!DOCTYPE svg PUBLIC "-//W3C//DTD SVG 1.1//EN" "http://www.w3.org/Graphics/SVG/1.1/DTD/svg11.dtd">
<svg version="1.1" id="Capa_1" xmlns="http://www.w3.org/2000/svg" xmlns:xlink="http://www.w3.org/1999/xlink" x="0px" y="0px"
	 width="50px" height="50px" viewBox="0 0 79.536 79.536" style="enable-background:new 0 0 79.536 79.536;"
	 xml:space="preserve">
<g>
	<path style="fill:#ffffff;" d="M39.768,0C25.122,0,13.256,11.866,13.256,26.512c0,11.364,7.18,20.972,17.217,24.752l2.667,8.099
		l6.627,20.174l6.629-20.174l2.666-8.099c10.041-3.78,17.218-13.388,17.218-24.752C66.28,11.866,54.401,0,39.768,0z M39.328,34.466
		c-4.392,0-7.954-3.562-7.954-7.954c0-4.391,3.562-7.953,7.954-7.953c4.391,0,7.953,3.562,7.953,7.953
		C47.281,30.903,43.719,34.466,39.328,34.466z"/>
</g>
<g>
</g>
<g>
</g>
<g>
</g>
<g>
</g>
<g>
</g>
<g>
</g>
<g>
</g>
<g>
</g>
<g>
</g>
<g>
</g>
<g>
</g>
<g>
</g>
<g>
</g>
<g>
</g>
<g>
</g>
</svg>
