<?xml version="1.0"?><svg width="30" height="30" xmlns="http://www.w3.org/2000/svg">
 <title>Google maps</title>

 <g>
  <title>Layer 1</title>
  <g id="svg_1">
   <path id="svg_2" d="m702.026917,1800.715942c-38.765869,-190.301025 -107.115967,-348.665039 -189.902954,-495.439941c-61.406982,-108.87207 -132.543945,-209.363037 -198.364014,-314.937927c-21.971985,-35.244019 -40.93396,-72.477051 -62.047012,-109.054077c-42.215942,-73.136963 -76.44397,-157.934998 -74.268982,-267.932007c2.125,-107.472992 33.208008,-193.684021 78.029968,-264.172028c73.71907,-115.934967 197.201065,-210.988968 362.884048,-235.968964c135.466064,-20.423996 262.475098,14.082001 352.542969,66.748001c73.600159,43.037994 130.59613,100.526993 173.920105,168.279984c45.219971,70.716003 76.359009,154.26001 78.970947,263.232025c1.337036,55.830017 -7.804932,107.531982 -20.68396,150.417969c-13.033936,43.409058 -33.995972,79.695007 -52.645996,118.454041c-36.406006,75.658997 -82.04895,144.981934 -127.855042,214.345947c-136.437012,206.605957 -264.496094,417.309937 -320.580078,706.026978z" stroke-miterlimit="10" stroke-width="37" stroke="#000000" fill="#007fff" clip-rule="evenodd" fill-rule="evenodd"/>
   <circle fill="#000000" id="svg_4" r="183.332031" cy="612.133958" cx="700.632964" clip-rule="evenodd" fill-rule="evenodd"/>
  </g>
 </g>
</svg>