<?xml version="1.0" encoding="iso-8859-1"?>
<!-- Generator: Adobe Illustrator 19.0.0, SVG Export Plug-In . SVG Version: 6.00 Build 0)  -->
<svg xmlns="http://www.w3.org/2000/svg" xmlns:xlink="http://www.w3.org/1999/xlink" version="1.1" id="Layer_1" x="0px" y="0px" viewBox="0 0 512 512" style="enable-background:new 0 0 512 512;" xml:space="preserve" width="512px" height="512px">
<g>
	<g>
		<path d="M509.013,399.066L112.932,2.987c-3.984-3.982-10.44-3.982-14.425,0L2.987,98.507c-3.983,3.983-3.983,10.441,0,14.425    l396.081,396.081c1.992,1.991,4.602,2.987,7.212,2.987c2.61,0,5.22-0.996,7.212-2.987l95.521-95.521    C512.996,409.508,512.996,403.05,509.013,399.066z M406.28,487.375l-18.445-18.445l15.073-15.074    c3.983-3.983,3.983-10.441,0-14.425c-3.984-3.982-10.442-3.982-14.425,0l-15.073,15.074L354.8,435.895l15.074-15.074    c3.983-3.983,3.983-10.441,0-14.425c-3.984-3.982-10.44-3.982-14.425,0l-15.074,15.074l-18.609-18.609l15.074-15.074    c3.983-3.983,3.983-10.441,0-14.425c-3.984-3.982-10.44-3.982-14.425,0l-15.074,15.074l-18.611-18.61l29.044-29.044    c3.983-3.983,3.983-10.441,0-14.425c-3.984-3.982-10.44-3.982-14.425,0l-29.044,29.044l-18.61-18.611l15.074-15.074    c3.983-3.983,3.983-10.441,0-14.425c-3.984-3.982-10.44-3.982-14.425,0l-15.074,15.074l-18.609-18.609l15.074-15.074    c3.983-3.983,3.983-10.441,0-14.425c-3.984-3.982-10.44-3.982-14.425,0l-15.074,15.074l-18.609-18.609l15.074-15.074    c3.983-3.983,3.983-10.441,0-14.425c-3.984-3.982-10.44-3.982-14.425,0l-15.074,15.074l-18.611-18.61l29.044-29.044    c3.983-3.983,3.983-10.441,0-14.425c-3.984-3.982-10.44-3.982-14.425,0l-29.044,29.044l-18.61-18.61l15.074-15.074    c3.983-3.983,3.983-10.441,0-14.425c-3.984-3.982-10.44-3.982-14.425,0l-15.074,15.074l-18.604-18.603l15.074-15.074    c3.983-3.983,3.983-10.441,0-14.425c-3.984-3.982-10.44-3.982-14.425,0l-15.074,15.074l-18.61-18.609l15.074-15.073    c3.983-3.983,3.983-10.441,0-14.425c-3.983-3.98-10.439-3.982-14.425,0l-15.074,15.073l-18.445-18.445l55.522-55.522    l107.011,107.01c1.992,1.991,4.602,2.987,7.212,2.987s5.22-0.996,7.212-2.987c3.983-3.983,3.983-10.441,0-14.425L94.571,35.772    l11.15-11.15l381.656,381.656L406.28,487.375z" fill="#FFFFFF"/>
	</g>
</g>
<g>
	<g>
		<path d="M235.272,176.473l-4.93-4.93c-3.984-3.982-10.44-3.982-14.425,0c-3.983,3.983-3.983,10.441,0,14.425l4.931,4.93    c1.992,1.991,4.602,2.987,7.212,2.987s5.22-0.997,7.212-2.987C239.255,186.915,239.255,180.457,235.272,176.473z" fill="#FFFFFF"/>
	</g>
</g>
<g>
</g>
<g>
</g>
<g>
</g>
<g>
</g>
<g>
</g>
<g>
</g>
<g>
</g>
<g>
</g>
<g>
</g>
<g>
</g>
<g>
</g>
<g>
</g>
<g>
</g>
<g>
</g>
<g>
</g>
</svg>
