<svg xmlns="http://www.w3.org/2000/svg" width="90.195" height="52.468" viewBox="0 0 90.195 52.468">
  <g id="Groupe_1446" data-name="Groupe 1446" transform="translate(-5.097 -11.437)">
    <g id="Groupe_1443" data-name="Groupe 1443" transform="translate(5.158 11.437)">
      <path id="Tracé_467" data-name="Tracé 467" d="M8.9,15.751,5.136,18.569l.006-4.234,3.769-2.817,3.766,0-.044,27.294-3.764-.006Z" transform="translate(-5.136 -11.392)" fill="#f48404"/>
      <path id="Tracé_468" data-name="Tracé 468" d="M12.548,19.268a7.5,7.5,0,0,1,7.542-7.831,7.226,7.226,0,0,1,5.173,2.047,7.336,7.336,0,0,1,2.185,5.807L27.43,31.37a7.908,7.908,0,0,1-2.206,5.8A7.218,7.218,0,0,1,20.046,39.2a7.529,7.529,0,0,1-7.517-7.541v-.315Zm11.294.332q.007-4-3.758-4.242c-2.51,0-3.61,1.406-3.772,4.23l-.019,11.607q-.007,4.235,3.758,4.241,3.53.007,3.772-4.228Z" transform="translate(-0.939 -11.437)" fill="#f48404"/>
      <path id="Tracé_469" data-name="Tracé 469" d="M25.355,19.287a7.257,7.257,0,0,1,2.361-5.8,6.976,6.976,0,0,1,5.18-2.03A7.221,7.221,0,0,1,38.069,13.5a7.335,7.335,0,0,1,2.187,5.807l-.019,12.078a7.916,7.916,0,0,1-2.206,5.8,7.222,7.222,0,0,1-5.18,2.032,7.635,7.635,0,0,1-7.517-7.542v-.314Zm11.292.331q.007-4-3.758-4.241c-2.51,0-3.609,1.406-3.77,4.23L29.1,31.214q-.007,4.235,3.758,4.241,3.53.007,3.772-4.228Z" transform="translate(6.331 -11.426)" fill="#f48404"/>
      <path id="Tracé_470" data-name="Tracé 470" d="M37.361,15.23a4.137,4.137,0,0,1,1.1-2.979,5.193,5.193,0,0,1,2.511-.781,3.564,3.564,0,0,1,2.508.945A4.144,4.144,0,0,1,44.576,15.4l0,2.667a3.362,3.362,0,0,1-.317,1.724,3.417,3.417,0,0,1-.785,1.254,3.568,3.568,0,0,1-2.511.937,3.621,3.621,0,0,1-3.6-3.457l0-.314ZM50.7,11.643l2.51,0L40.146,39.077l-2.51,0ZM39.553,17.587q0,1.881,1.409,1.884t1.414-1.88l0-2.04q0-1.884-1.409-1.884t-1.414,1.88Zm6.564,15.226a4.137,4.137,0,0,1,1.1-2.979,3.456,3.456,0,0,1,2.355-.937,3.353,3.353,0,0,1,3.6,3.143v.627l0,2.667a3.379,3.379,0,0,1-.317,1.724,3.42,3.42,0,0,1-.787,1.254,3.562,3.562,0,0,1-2.51.937,3.621,3.621,0,0,1-3.6-3.457v-.314Zm2.192,2.356q0,1.881,1.409,1.884t1.414-1.88l0-2.04q0-1.881-1.408-1.884t-1.416,1.88Z" transform="translate(13.155 -11.418)" fill="#f48404"/>
    </g>
    <g id="Groupe_1445" data-name="Groupe 1445" transform="translate(5.097 44.349)">
      <g id="Groupe_1444" data-name="Groupe 1444">
        <path id="Tracé_471" data-name="Tracé 471" d="M14.655,50.955l-.157.157L12.3,50.95l-5.647-.008-1.1,0-.155-1.1-.152-2.51,0-2.04-.157-.47.16-1.411L5.1,42.939l0-2.353.315-.784,0-2.508-.314-.472.158-.157.006-4.234,8.314.013.47,0,.47.47-.158.47-.011,6.9-.627,0-.47-.315h-.314v-.157l-.47.157-.314,0-.627-.157,0-3.137.157-.47,0-1.1L7.779,35.1l0,1.413.307,3.764-.157.157-.009,5.647-.157.157.157.157,0,.472v.47h.157l0,.941.784.158,3.294,0,.006-4.391,2.355-.624Z" transform="translate(-5.097 -32.431)" fill="#f48404"/>
        <path id="Tracé_472" data-name="Tracé 472" d="M29.692,44.063h0l0,1.1v.47l.157.157V46.1h-.158v.47l-.158,1.411,0,1.569-.157.314,0,1.568-.157.314-1.883,0-.47-.158-.314-.314.011-6.9.161-2.98-.63,1.881-.158,1.1-.315,1.1-.16,1.254-.47.155-.314-.157-.312-1.413-1.561-4.394.151,4.079-.006,4.078-.317,2.353-.158.157-2.195,0L19.8,50.164l.025-16.314.315-.941.158-.155,1.724,0,2.032,4.553.469,1.569v-.314l.472-.47.632-3.135.315-.314.63-1.881,2.51,0,.464,4.236h0l-.158.155.314.472,0,2.51.155.314-.157.47Z" transform="translate(3.25 -32.247)" fill="#f48404"/>
        <path id="Tracé_473" data-name="Tracé 473" d="M36.346,51.447l-.941,0h-.315l-.155-.158-.942.155-6.274-.009,0-1.1-.155-.942.027-16.47-.47-.157,8.627.014.47.157,0,2.667-.47-.158-4.863-.006-1.1,0-.157.157,0,1.726.155.941,0,1.726.157.157,2.51,0,1.569-.155,0,1.1-.158.157.155,1.724-4.549-.006.312,1.569,0,2.038,0,.785.155,1.1,6.274.011Z" transform="translate(7.407 -32.241)" fill="#f48404"/>
        <path id="Tracé_474" data-name="Tracé 474" d="M34.22,49.4V48.62l-.155-.315.157-.314,0-3.294-.314-.157.158-.157,0-1.256-.157-.314.158-.627.014-9.411,9.569.014,0,.629.312,1.413,0,.627v.157l.464,3.766v.157l-.157.157-1.568-.16-.629,0-.157.157.622,2.982,1.093,4.079.31,1.412v.157l.157.158.155,1.1v.314l.155.314.155,1.413-2.51,0L40.5,48.159,40.184,46.9l-1.09-5.021-.31-2.2-1.883,0,.462,5.492,0,2.038,0,1.726-.317,2.352-2.51.154-.314-.315v-.47Zm0,1.411ZM41.3,37.181V36.4l0-.941-4.7-.008.155.785,0,.47-.157.314,4.706.008Z" transform="translate(11.262 -32.235)" fill="#f48404"/>
        <path id="Tracé_475" data-name="Tracé 475" d="M51.127,46.665h0v.47l0,1.1-.157.157.157.157-.157.157v.314l.155.472-.157.155.157,0-.158.784.155,1.411h-.157l-.157-.157-.157.157h-.157l-.157-.157-.157.155H50.02l-1.1,0-.314-.47v.157l-1.254,0L46.1,51.362l0,.157-2.038,0-1.569-.16h-.314l-.462-4.863.013-7.843.158-.784V37.4l-.157-.157.158-.47v-.157l-.157-.158.157-.157-.151-3.607,8.784.014.47.157-.006,3.766.314.314v.314l-.158.627.157.158-.158,1.254.155.157-.158,1.411.157.315,0,.314-.157.157.314.627-.158.157v.47l0,.47v.315l-.157.157v.314h0l0,.314.157.157-.157.314,0,1.568.314,0Zm-2.51-.161,0-1.413-.157-.314.009-5.49h-.157l.157-.314,0-2.667v-.784L44.4,35.517l.154,1.568-.157.157h.157V37.4l-.157.155.157.472-.006,3.294.157.157v.157l-.157.157.314.157-.472.314.312,1.726,0,2.353-.157.157.157.314,0,.627-.158,1.1v.158l2.2-.154,1.568,0,0-1.254,0-.314.314-.157Z" transform="translate(15.692 -32.285)" fill="#f48404"/>
        <path id="Tracé_476" data-name="Tracé 476" d="M59.081,32.917l-.158,1.1L58.9,51.268l-7.686-.013-2.04.312,0-2.667-.155-.315.317-2.195.022-13.49,2.51,0-.014,8.314.309,3.764L52,45.14l-.161,3.607,3.764.006.157-.314.025-15.528Z" transform="translate(19.837 -32.164)" fill="#f48404"/>
        <path id="Tracé_477" data-name="Tracé 477" d="M66.433,43.865h0v.47h0l-.161,2.51.157.314h-.157v.314l.155.158-.157.314-.157.47-.161,2.822-2.823,0-.157-.315v-.157l-.937-1.883L60.94,45.895l-1.406-3.609-.467-1.726,0,1.724.157.314-.158.785.155,1.568,0,.157v.157l-.166,5.8-.47.157-.941,0-.157-.157h-.157l-.627,0h-.315l-.452-11.922.006-3.607.318-2.823.627.158,1.254,0,.472-.157,1.875,4.239.157.157v.157l.314.47,0,.315.782,1.726,1.4,4.081.157.157-.453-10.51L63,32.88l2.667,0,.309,3.137,0,.784.154,1.883h.158l0,.314h-.157Z" transform="translate(23.762 -32.271)" fill="#f48404"/>
      </g>
      <path id="Tracé_479" data-name="Tracé 479" d="M23.236,49.855l-.154-1.569-.157-.314.157-.157v-.157l-.312-.472,0-.941-.157-.941-.467-1.884v-.157l-.312-1.254-.31-1.883-.155-.315L20.9,37.146h-.157l0-.627-.314-.472,0-.941-.157-.157-.314-.472-.155-.627-.155-.942L16.2,32.747l-.158,1.1-.315.47,0,.784-.157.157,0,1.1-.158.784L14.15,43.1l-.955,8,2.51.161.158-.941.473-1.569.315-.782.312.314,1.883,0h.627l.785-.155-.158.314.47.785-.158.157v.157l.157.157,0,.941.47.629h.314l1.411.16.627,0,.158-.157ZM19.17,42.79l.624,1.884-1.566-1.1-1.571,1.094.63-1.881-1.409-1.1,1.881,0,.63-1.881h0l.469,1.884,1.881,0Z" transform="translate(-0.5 -32.252)" fill="#f48404"/>
    </g>
    <rect id="Rectangle_60" data-name="Rectangle 60" width="3.294" height="16.627" transform="matrix(0.002, -1, 1, 0.002, 77.782, 36.106)" fill="#fff200"/>
    <rect id="Rectangle_61" data-name="Rectangle 61" width="3.294" height="16.627" transform="matrix(0.002, -1, 1, 0.002, 77.8, 27.001)" fill="red"/>
    <rect id="Rectangle_62" data-name="Rectangle 62" width="3.294" height="16.627" transform="matrix(0.002, -1, 1, 0.002, 77.915, 17.896)" fill="#15fc26"/>
  </g>
</svg>
