<?xml version="1.0" encoding="iso-8859-1"?>
<!-- Generator: Adobe Illustrator 18.1.1, SVG Export Plug-In . SVG Version: 6.00 Build 0)  -->
<svg xmlns="http://www.w3.org/2000/svg" xmlns:xlink="http://www.w3.org/1999/xlink" version="1.1" id="Capa_1" x="0px" y="0px" viewBox="0 0 49.609 49.609" style="enable-background:new 0 0 49.609 49.609;" xml:space="preserve" width="512px" height="512px">
<g>
	<g>
		<path d="M42.037,16.479c0-0.409-0.341-0.75-0.75-0.75c-5.586,0-11.171,0-16.757,0    c-5.336,0-10.673,0-16.009,0c-0.409,0-0.75,0.341-0.75,0.75c0,1.258,0,2.516,0,3.774c0,0.409,0.341,0.75,0.75,0.75    c1.457,0,2.914,0,4.37,0c0,5.521,0,11.042,0,16.564c-0.715,0-1.431,0-2.146,0c-0.409,0-0.75,0.341-0.75,0.75    c0,0.936,0,1.872,0,2.809c0,0.41,0.341,0.75,0.75,0.75c1.569,0,3.137,0,4.707,0h0.001c-0.035,0.08-0.072,0.16-0.072,0.256    c0,2.242,0,4.484,0,6.727c0,0.409,0.341,0.75,0.75,0.75c6.009,0,12.02,0,18.028,0c0.198,0,0.397,0,0.596,0    c0.205,0,0.357-0.076,0.476-0.184c0.017-0.016,0.037-0.023,0.052-0.039c0,0,0,0,0.001,0c0.016-0.014,0.023-0.035,0.038-0.051    c0.002-0.004,0.004-0.008,0.006-0.012c0.103-0.117,0.177-0.266,0.177-0.466c0-2.267,0-4.528,0-6.794    c0-0.071-0.02-0.127-0.031-0.188c1.381,0,2.763,0,4.145,0c0.408,0,0.75-0.34,0.75-0.75c0-0.936,0-1.871,0-2.809    c0-0.409-0.342-0.75-0.75-0.75c-0.598,0-1.193,0-1.792,0c0,0.25,0,0.5,0,0.75l-0.001-0.001c0-0.25,0-0.499,0-0.749h0.001    c0-5.521,0-11.043,0-16.564h-0.001c0-0.145,0-0.29,0-0.435c0-0.105,0-0.209,0-0.314l0.001-0.001c0,0.105,0,0.21,0,0.315    c0,0.145,0,0.29,0,0.435c1.153,0,2.31,0,3.463,0c0.204,0,0.354-0.076,0.474-0.181c-0.164,0.12-0.377,0.17-0.578,0.147    c0.201,0.023,0.414-0.027,0.576-0.147c0.019-0.016,0.041-0.025,0.057-0.042c0.015-0.013,0.021-0.033,0.035-0.047    c0.328-0.431,0.143-1.23-0.564-1.23h0.001c0.707,0,0.892,0.799,0.563,1.23c0.107-0.119,0.187-0.272,0.187-0.48    C42.037,18.995,42.037,17.737,42.037,16.479z M34.753,48.108c-0.25,0-0.499,0-0.749,0h-0.001c-2.608,0-5.218,0-7.827,0    c0.262-1.135,0.653-2.896,0.88-3.943c0.012-0.056-0.039-0.061-0.102-0.037c-0.443,0.164-1.328,0.482-1.328,0.482    s-0.984-0.387-1.262-0.493c-0.023-0.022-0.054-0.024-0.085-0.01c-0.009,0.004-0.035,0.03-0.039,0.04    c-0.001,0.002-0.001,0.005-0.001,0.007c0.209,1.06,0.561,2.819,0.798,3.954c-2.72,0-5.44,0-8.159,0c0-1.859,0-3.719,0-5.577    c0.325-0.218,0.649-0.437,0.974-0.655h-0.001c0.704-0.474,1.408-0.947,2.111-1.422c-0.173,0.447-0.353,0.938-0.52,1.422    c-0.446,1.303-0.778,2.561-0.492,2.801l0.287,0.175l0.236-0.165c1.258-0.88,4.441-0.85,5.58-0.809h0.001    c0.019,0.021,0.037,0.041,0.056,0.062c0.132,0.146,0.331,0.219,0.53,0.219s0.398-0.072,0.531-0.219    c0.023-0.025,0.047-0.051,0.07-0.077c1.182-0.059,4.557-0.038,5.79,0.823l0.522-0.01c0.289-0.242-0.062-1.506-0.525-2.801    c-0.148-0.412-0.307-0.826-0.459-1.213c0.574,0.404,1.146,0.81,1.721,1.213h0.001c0.237,0.17,0.474,0.336,0.711,0.502v0.002    c0,1.91,0,3.817,0,5.728C34.254,48.107,34.503,48.107,34.753,48.108c0.527-0.001,0.763,0.441,0.714,0.848    C35.516,48.551,35.28,48.108,34.753,48.108z M26.026,41.876c-0.129,0.14-0.256,0.278-0.383,0.418    c-0.126-0.14-0.253-0.277-0.379-0.418c-0.454-0.5-0.907-1-1.361-1.5h0.001c-0.395-0.436-0.791-0.871-1.186-1.308    c0.251,0,0.503,0,0.754,0c0.292,0,0.543-0.178,0.667-0.426c0.718,0.278,1.513,0.39,2.378,0.264    c0.073-0.011,0.141-0.034,0.213-0.049c-0.005-0.004-0.01-0.007-0.015-0.011c-0.013-0.016-0.023-0.033-0.035-0.049    c0.012,0.016,0.022,0.031,0.036,0.047c0.004,0.005,0.01,0.008,0.015,0.012c0,0,0,0-0.001,0c0.013,0.01,0.026,0.02,0.04,0.029    c0.119,0.105,0.27,0.183,0.474,0.183c0.445,0,0.891,0,1.336,0c-0.396,0.437-0.793,0.872-1.189,1.308    C26.935,40.876,26.48,41.376,26.026,41.876L26.026,41.876z M21.196,39.624c0.228,0.25,0.455,0.502,0.683,0.752h-0.001    c0.453,0.5,0.907,1,1.36,1.5h0.001c0.373,0.412,0.747,0.824,1.121,1.235h-0.001c-1.292-0.01-3.368,0.073-4.707,0.634    c0.126-0.466,0.351-1.152,0.602-1.869c0.178-0.511,0.368-1.027,0.548-1.5c0.091-0.238,0.177-0.457,0.258-0.662    C21.105,39.684,21.15,39.653,21.196,39.624z M28.053,41.876c0.455-0.5,0.909-1,1.364-1.5c0.229-0.25,0.456-0.502,0.685-0.752    c0.108,0.075,0.217,0.151,0.324,0.229v0.001c0.067,0.163,0.137,0.337,0.211,0.522c0.186,0.469,0.383,0.986,0.572,1.5    c0.26,0.711,0.497,1.396,0.633,1.864c-1.375-0.565-3.539-0.657-4.904-0.637C27.308,42.694,27.68,42.286,28.053,41.876z     M29.613,39.279C29.614,39.279,29.613,39.278,29.613,39.279c0.179-0.024,0.359-0.047,0.537-0.069    C29.973,39.233,29.793,39.256,29.613,39.279z M29.003,37.568L29.003,37.568c-0.002,0-0.004,0-0.005,0H29.003    c0.448-0.438,0.839-0.938,1.155-1.44c1.018-1.613,1.415-3.603,1.434-5.487c0-0.005,0.002-0.009,0.002-0.013    c-0.027-2.856-1.018-6.145-3.6-7.705c0-0.639,0-1.279,0-1.919c1.52,0,3.037,0,4.557,0c0,5.522,0,11.043,0,16.564    C31.367,37.568,30.187,37.568,29.003,37.568z M27.994,25.538c0.333,0.401,0.602,0.854,0.82,1.33s0.386,0.979,0.514,1.48    c0.191,0.748,0.258,1.51,0.266,2.279c-0.015,1.619-0.438,3.797-1.6,5.151v0.001c-0.405,0.473-0.9,0.846-1.5,1.059    c-0.162,0.059-0.331,0.104-0.508,0.139c-0.639,0.12-1.247-0.128-1.765-0.505c0,0.614,0,1.229,0,1.846    c0,0.116-0.034,0.224-0.083,0.323h-0.001c0.05-0.1,0.083-0.207,0.083-0.324c0.001-0.615,0.001-1.23,0.001-1.846    c-0.313-0.229-0.594-0.504-0.828-0.775c-0.266-0.309-0.481-0.664-0.672-1.037v-0.001c-0.45-0.878-0.714-1.883-0.826-2.815    c-0.049-0.409-0.073-0.844-0.07-1.289c0.01-1.34,0.273-2.79,0.896-3.987c0.364-0.699,0.865-1.294,1.5-1.742    c0.179-0.126,0.348-0.262,0.551-0.361c0.546-0.266,1.163-0.247,1.722-0.05c0.329,0.115,0.639,0.292,0.9,0.507    C27.619,25.105,27.81,25.317,27.994,25.538z M22.721,21.004c0,0.825,0,1.648,0,2.473c-0.565,0.461-1.063,1.026-1.458,1.652    c-1.061,1.683-1.515,3.771-1.446,5.819c0.042,1.229,0.271,2.443,0.671,3.548c0.07,0.192,0.156,0.379,0.24,0.567    c0.303,0.685,0.686,1.331,1.154,1.894c0.18,0.215,0.368,0.422,0.57,0.608c0.089,0,0.179,0,0.269,0v0.001c-0.089,0-0.179,0-0.269,0    c0,0,0.001,0,0.001,0.001c-1.431-0.001-2.858-0.001-4.288-0.001c0-5.521,0-11.042,0-16.563v-0.001    C19.684,21.003,21.202,21.003,22.721,21.004L22.721,21.004z M34.004,41.992c0.123,0.216,0.247,0.433,0.371,0.647    c-0.001,0-0.001-0.001-0.002-0.001C34.25,42.422,34.126,42.208,34.004,41.992z M40.536,19.503c-1.153,0-2.308,0-3.462,0    c-0.409,0-0.75,0.341-0.75,0.75c0,5.916,0,11.833,0,17.75c0,0.104,0,0.209,0,0.314c0,0.409,0.341,0.75,0.75,0.75    c0.597,0,1.193,0,1.791,0h0.001c0,0.438,0,0.872,0,1.309h-0.001c-1.702,0-3.403,0-5.104,0h-0.002    c-0.168-0.119-0.334-0.236-0.502-0.354c-0.451-0.317-0.9-0.636-1.351-0.953c0.464,0,0.929,0,1.394,0c0.407,0,0.75-0.341,0.75-0.75    c0-5.916,0-11.833,0-17.749c0-0.105,0-0.21,0-0.315c0-0.409-0.343-0.75-0.75-0.75c-2.021,0-4.037,0-6.058,0    c-0.409,0-0.75,0.341-0.75,0.75c0,0.695,0,1.39,0,2.085c-0.781-0.137-1.553-0.033-2.273,0.247c0-0.673,0-1.345,0-2.018    c0-0.105,0-0.21,0-0.315c0-0.409-0.341-0.75-0.75-0.75c-2.019,0-4.037,0-6.056,0c-0.207,0-0.361,0.078-0.479,0.186    c-0.016,0.012-0.033,0.022-0.047,0.036c-0.016,0.017-0.027,0.036-0.041,0.055c-0.106,0.118-0.182,0.27-0.182,0.474    c0,5.917,0,11.833,0,17.75c0,0.104,0,0.209,0,0.313c0,0.409,0.341,0.75,0.75,0.75c0.641,0,1.283,0,1.924,0c0,0,0.001,0,0.002,0    c-0.4,0.269-0.8,0.539-1.2,0.808c-0.248,0.168-0.495,0.334-0.743,0.5h0h-0.001c-1.966,0-3.934,0-5.901,0c0,0.25,0,0.5,0,0.75    h-0.001c0-0.25,0-0.5,0-0.75h0.001c0-0.436,0-0.871,0-1.309h-0.001c0-0.25,0-0.499,0-0.749l0.001-0.001c0,0.25,0,0.5,0,0.75    c0.714,0,1.43,0,2.144,0c0.001,0,0.001,0,0.002,0c0.409,0,0.75-0.341,0.75-0.75c0-5.916,0-11.833,0-17.749c0-0.105,0-0.21,0-0.315    c0-0.409-0.341-0.75-0.75-0.75c-0.001,0-0.001,0-0.002,0c-1.456,0-2.912,0-4.368,0c0,0.25,0,0.5,0,0.75L9.27,20.252    c0-0.25,0-0.499,0-0.749h0.001c0-0.758,0-1.516,0-2.274H9.27c0-0.25,0-0.499,0-0.749l0.001-0.001c0,0.25,0,0.5,0,0.75    c5.335,0,10.67,0,16.005,0c0.001,0,0.001,0,0.002,0c5.085,0,10.172,0,15.257,0h0.001h0.001c0.001,0.758,0.001,1.516,0.001,2.274    C40.537,19.503,40.536,19.503,40.536,19.503z M40.538,16.48L40.538,16.48c0.25,0.249,0.5,0.499,0.749,0.749    C41.037,16.979,40.788,16.73,40.538,16.48z" fill="#000"/>
		<path d="M8.288,14.143c5.583,0,11.167,0,16.75,0c5.362,0,10.724,0,16.085,0    c0.239,0.081,0.457,0.003,0.616-0.165c0.366-0.302,0.35-0.943-0.054-1.21c-0.008-0.007-0.01-0.016-0.02-0.023    C36.737,8.97,31.81,5.196,26.882,1.421c-0.573-0.438-1.145-0.876-1.717-1.314c-0.187-0.143-0.57-0.143-0.757,0    C19.48,3.882,14.552,7.656,9.624,11.431c-0.572,0.438-1.144,0.876-1.716,1.314C7.353,13.171,7.475,14.143,8.288,14.143z     M23.45,2.716c0.446-0.341,0.892-0.683,1.337-1.024c4.766,3.65,9.531,7.3,14.296,10.95c-4.849,0-9.698,0-14.546,0    c-4.682,0-9.364,0-14.046,0C14.811,9.333,19.13,6.025,23.45,2.716z" fill="#000"/>
	</g>
</g>
<g>
</g>
<g>
</g>
<g>
</g>
<g>
</g>
<g>
</g>
<g>
</g>
<g>
</g>
<g>
</g>
<g>
</g>
<g>
</g>
<g>
</g>
<g>
</g>
<g>
</g>
<g>
</g>
<g>
</g>
</svg>
