<?xml version="1.0" encoding="iso-8859-1"?>
<!-- Generator: Adobe Illustrator 19.0.0, SVG Export Plug-In . SVG Version: 6.00 Build 0)  -->
<svg xmlns="http://www.w3.org/2000/svg" xmlns:xlink="http://www.w3.org/1999/xlink" version="1.1" id="Layer_1" x="0px" y="0px" viewBox="0 0 512 512" style="enable-background:new 0 0 512 512;" xml:space="preserve" width="512px" height="512px">
<g>
	<g>
		<path d="M495.543,269.714V81.372c0-10.971-7.314-18.286-18.286-18.286H34.743c-10.971,0-18.286,7.314-18.286,18.286v188.342    C7.314,271.543,0,278.857,0,288c0,10.971,7.314,18.286,18.286,18.286h16.458h171.886v153.6H193.83    c-10.971,0-18.286,7.314-18.286,18.286s7.314,18.286,18.286,18.286h126.172c10.971,0,18.286-7.314,18.286-18.286    s-7.314-18.286-18.286-18.286H307.2v-153.6h171.886h14.629c10.971,0,18.286-7.314,18.286-18.286    C512,277.029,504.686,269.714,495.543,269.714z M268.8,458.057h-27.429v-153.6H268.8V458.057z M458.972,269.714H287.086h-64    H53.029V99.657h405.943V269.714z" fill="#000"/>
	</g>
</g>
<g>
	<g>
		<path d="M270.629,15.543h-31.085c-10.971,0-18.286,7.314-18.286,18.286s9.142,18.286,18.286,18.286h31.086    c10.971,0,18.286-7.314,18.286-18.286S281.6,15.543,270.629,15.543z" fill="#000"/>
	</g>
</g>
<g>
	<g>
		<path d="M113.371,15.543H82.286C71.315,15.543,64,22.857,64,33.829s7.314,18.286,18.286,18.286h31.085    c10.971,0,18.286-7.314,18.286-18.286S124.343,15.543,113.371,15.543z" fill="#000"/>
	</g>
</g>
<g>
	<g>
		<path d="M429.715,15.543h-31.086c-10.971,0-18.286,7.314-18.286,18.286s7.314,18.286,18.286,18.286h31.086    C440.686,52.115,448,44.8,448,33.829S440.686,15.543,429.715,15.543z" fill="#000"/>
	</g>
</g>
<g>
</g>
<g>
</g>
<g>
</g>
<g>
</g>
<g>
</g>
<g>
</g>
<g>
</g>
<g>
</g>
<g>
</g>
<g>
</g>
<g>
</g>
<g>
</g>
<g>
</g>
<g>
</g>
<g>
</g>
</svg>
