<?xml version="1.0" encoding="iso-8859-1"?>
<!-- Generator: Adobe Illustrator 19.0.0, SVG Export Plug-In . SVG Version: 6.00 Build 0)  -->
<svg xmlns="http://www.w3.org/2000/svg" xmlns:xlink="http://www.w3.org/1999/xlink" version="1.1" id="Capa_1" x="0px" y="0px" viewBox="0 0 56 56" style="enable-background:new 0 0 56 56;" xml:space="preserve" width="512px" height="512px">
<g>
	<g>
		<path d="M19,36H1c-0.552,0-1,0.447-1,1s0.448,1,1,1h17v17c0,0.553,0.448,1,1,1s1-0.447,1-1V37C20,36.447,19.552,36,19,36z" fill="#000"/>
		<path d="M37,20h18c0.552,0,1-0.447,1-1s-0.448-1-1-1H38V1c0-0.553-0.448-1-1-1s-1,0.447-1,1v18C36,19.553,36.448,20,37,20z" fill="#000"/>
		<path d="M19,0c-0.552,0-1,0.447-1,1v17H1c-0.552,0-1,0.447-1,1s0.448,1,1,1h18c0.552,0,1-0.447,1-1V1C20,0.447,19.552,0,19,0z" fill="#000"/>
		<path d="M55,36H37c-0.552,0-1,0.447-1,1v18c0,0.553,0.448,1,1,1s1-0.447,1-1V38h17c0.552,0,1-0.447,1-1S55.552,36,55,36z" fill="#000"/>
		<rect y="27" width="5" height="2" fill="#000"/>
		<rect x="37" y="27" width="5" height="2" fill="#000"/>
		<rect x="7" y="27" width="5" height="2" fill="#000"/>
		<rect x="44" y="27" width="5" height="2" fill="#000"/>
		<rect x="14" y="27" width="5" height="2" fill="#000"/>
		<rect x="51" y="27" width="5" height="2" fill="#000"/>
		<rect x="27" width="2" height="5" fill="#000"/>
		<rect x="27" y="37" width="2" height="5" fill="#000"/>
		<rect x="27" y="7" width="2" height="5" fill="#000"/>
		<rect x="27" y="44" width="2" height="5" fill="#000"/>
		<rect x="27" y="14" width="2" height="5" fill="#000"/>
		<rect x="27" y="51" width="2" height="5" fill="#000"/>
	</g>
</g>
<g>
</g>
<g>
</g>
<g>
</g>
<g>
</g>
<g>
</g>
<g>
</g>
<g>
</g>
<g>
</g>
<g>
</g>
<g>
</g>
<g>
</g>
<g>
</g>
<g>
</g>
<g>
</g>
<g>
</g>
</svg>
